<?xml version="1.0" encoding="UTF-8"?>
<svg version="1.1" xmlns="http://www.w3.org/2000/svg" width="512" height="512">
<path d="M0 0 C1.03415039 0.21430664 2.06830078 0.42861328 3.13378906 0.64941406 C39.0039855 8.35270414 72.62146687 24.11741589 102 46 C101.35691808 50.33545246 99.81936782 53.8237572 97.9296875 57.765625 C97.61693375 58.42307709 97.30417999 59.08052917 96.98194885 59.75790405 C96.30536658 61.17932291 95.6263911 62.5996046 94.94528198 64.01885986 C93.10602913 67.85301845 91.28581987 71.69619823 89.46484375 75.5390625 C88.90299126 76.72349442 88.90299126 76.72349442 88.32978821 77.93185425 C84.61022615 85.78967685 81.01426202 93.7014109 77.4375 101.625 C72.54267235 112.45740904 67.56678159 123.24694932 62.5 134 C57.09222634 145.47724244 51.79438567 156.99950535 46.56854248 168.56066895 C42.15815406 178.31427347 37.66047136 188.02226207 33.09115601 197.70239258 C28.50724526 207.41723119 23.95450303 217.14046148 19.6875 227 C19.15503662 228.21768066 19.15503662 228.21768066 18.61181641 229.45996094 C16.31520284 234.85361022 14.04838365 240.39466226 13.96875 246.32861328 C13.92449713 248.7660412 13.79506735 250.69102206 13 253 C10.37952301 255.31956465 7.38957293 256.52283166 4.1875 257.875 C-10.09209351 264.65143984 -20.31520496 274.08481039 -27.26171875 288.64453125 C-29.65410588 291.88635021 -32.60738843 292.91252497 -36.25 294.3125 C-37.70243657 294.91204655 -39.1529216 295.5163395 -40.6015625 296.125 C-41.33665039 296.43308594 -42.07173828 296.74117188 -42.82910156 297.05859375 C-72.76375785 310.03970426 -95.65157453 333.33223759 -114.43359375 359.3671875 C-129.98650463 380.71432008 -150.85270894 394.62744445 -176.82006836 399.53271484 C-202.46367318 403.30099581 -228.65742596 398.13758714 -249.86328125 382.94921875 C-254.18341752 379.55071155 -258.21405013 375.99059581 -262 372 C-262.50660156 371.54882812 -263.01320313 371.09765625 -263.53515625 370.6328125 C-288.74865933 347.54436548 -296.73837692 304.35074981 -300 272 C-300.11085938 270.95199219 -300.22171875 269.90398437 -300.3359375 268.82421875 C-304.60056735 220.70305756 -294.82199269 171.58174157 -272 129 C-271.62649414 128.28779297 -271.25298828 127.57558594 -270.86816406 126.84179688 C-262.08130359 110.1167652 -251.50783327 95.13764185 -239 81 C-238.25234375 80.14148438 -237.5046875 79.28296875 -236.734375 78.3984375 C-227.5761024 68.02125812 -217.91191829 58.52920456 -207 50 C-206.06285156 49.23429687 -205.12570313 48.46859375 -204.16015625 47.6796875 C-190.35918636 36.63180684 -175.01272006 27.37129738 -158.98779297 19.92382812 C-157.62898897 19.29232305 -156.2739808 18.6526028 -154.92236328 18.00585938 C-135.83230224 8.88170866 -115.74791541 2.99503343 -95 -1 C-93.76564209 -1.2477417 -93.76564209 -1.2477417 -92.50634766 -1.50048828 C-62.95178842 -7.18337927 -29.37115334 -6.12015469 0 0 Z M-50.1015625 58.390625 C-57.25481897 68.07035078 -61.16308215 78.92687971 -60 91 C-57.20458249 104.17839683 -50.96721389 114.09340394 -40 122 C-29.37036551 128.13507445 -17.77994316 130.08678577 -5.75 126.875 C6.05046499 122.72836698 15.25721884 115.10691741 21 104 C21.32097656 103.38125 21.64195312 102.7625 21.97265625 102.125 C25.80873598 92.98977757 25.48424308 80.2484519 22.4375 70.9375 C17.29984662 59.16596436 8.13615114 50.95873949 -3.484375 45.9453125 C-19.96591699 39.75193802 -38.64946287 45.36332951 -50.1015625 58.390625 Z M-173 91 C-173.62519531 91.50144531 -174.25039062 92.00289062 -174.89453125 92.51953125 C-182.62301855 99.43981073 -187.40744713 110.10358899 -188.1796875 120.39453125 C-188.54055957 133.44607105 -184.19537372 144.42724338 -175.234375 153.9609375 C-167.02504708 161.45266683 -156.15104257 165.96425948 -145 166 C-133.84467292 165.28729855 -122.89388961 161.07746843 -115 153 C-105.86635121 141.91058094 -102.73630191 131.12697962 -103.77246094 116.97265625 C-105.0246493 106.11677428 -111.48938693 96.38966521 -119.80078125 89.56640625 C-136.41238219 77.73469759 -157.00036583 78.01797856 -173 91 Z M-231.3125 218.3125 C-239.47548658 228.6029505 -242.09918943 240.07408886 -241 253 C-238.72762678 264.22579584 -232.60745942 274.55010239 -223 281 C-212.06935322 287.33942196 -201.37852254 289.89844032 -188.77734375 287.34765625 C-177.77343537 284.03938444 -168.40332443 277.59236161 -162.59765625 267.58203125 C-156.75107424 256.38031905 -154.85571292 245.07944201 -158.5625 232.75 C-163.15115056 220.63208478 -170.98741717 212.44597794 -182.609375 207.03515625 C-199.83467427 199.57648908 -218.74813626 204.75705413 -231.3125 218.3125 Z " fill="#000000" transform="translate(311,58)"/>
<path d="M0 0 C4.42174218 3.92754747 7.86690567 8.0827296 9 14 C9.31330259 19.40292178 8.39514757 23.76731498 6.59765625 28.80859375 C6.33219498 29.57771591 6.0667337 30.34683807 5.79322815 31.13926697 C1.83499663 42.50386469 -2.37992949 53.77917999 -6.5625 65.0625 C-7.49248983 67.57801388 -8.42222889 70.09361878 -9.3515625 72.609375 C-11.03549416 77.16713728 -12.720305 81.72457248 -14.40630913 86.28156853 C-18.68369166 97.84306912 -22.94396221 109.41086238 -27.20343018 120.97897339 C-29.38100318 126.89249408 -31.55967702 132.80560916 -33.73828125 138.71875 C-34.17086243 139.89291977 -34.6034436 141.06708954 -35.0491333 142.27684021 C-37.70371731 149.48215289 -40.35881582 156.68727579 -43.01429749 163.89225769 C-44.79715852 168.72968433 -46.57979864 173.56719237 -48.36245728 178.4046936 C-49.67716588 181.97195991 -50.99225967 185.53908407 -52.30737305 189.10620117 C-56.56444903 200.65585037 -60.81159859 212.20900809 -65.0390625 223.76953125 C-65.85191895 225.99025284 -66.66482498 228.21095629 -67.4777832 230.43164062 C-68.97695821 234.52681991 -70.47243135 238.623322 -71.96557617 242.72070312 C-75.30244097 251.85463733 -78.70464411 260.96100884 -82.26171875 270.01171875 C-82.57824905 270.8300972 -82.89477936 271.64847565 -83.22090149 272.49165344 C-86.61273856 281.01390459 -91.02143859 287.97227195 -99.4296875 292.23046875 C-104.26958613 294.26793368 -108.77239137 295.54542534 -114 296 C-113.32904297 296.67482422 -113.32904297 296.67482422 -112.64453125 297.36328125 C-103.85749877 306.71238404 -99.38595528 318.44986711 -99.76171875 331.28515625 C-101.81406861 354.6684866 -118.12188609 374.81758782 -135.21875 389.77734375 C-151.86294901 403.07867695 -173.40850923 413.48702722 -195 414 C-194.34343029 410.49619048 -193.49081482 407.11076522 -192.5 403.6875 C-188.90542583 390.55415341 -189.91828608 378.29928069 -192 364.9375 C-195.26247008 342.39008051 -196.33352474 319.84451793 -182.15234375 300.4765625 C-173.66560228 290.31946834 -163.06614083 284.80643561 -149.83203125 283.53515625 C-146.22448932 283.25762063 -142.61696024 283.10005423 -139 283 C-139.34933594 282.33613281 -139.69867188 281.67226563 -140.05859375 280.98828125 C-140.74115234 279.66376953 -140.74115234 279.66376953 -141.4375 278.3125 C-141.88996094 277.44238281 -142.34242188 276.57226562 -142.80859375 275.67578125 C-147.12351423 265.98489428 -144.40162974 257.52680897 -141 248 C-139.08629174 243.37714343 -136.90151393 238.87813471 -134.71896362 234.37762451 C-132.91373116 230.65392864 -131.13890714 226.91571445 -129.359375 223.1796875 C-128.99408188 222.41480011 -128.62878876 221.64991272 -128.25242615 220.86184692 C-124.54309901 213.07977381 -120.98229898 205.23302708 -117.4375 197.375 C-112.5434143 186.54226401 -107.56677521 175.75303714 -102.5 165 C-97.4135928 154.20481289 -92.41783012 143.37301502 -87.5 132.5 C-82.27992579 120.95874218 -76.96140819 109.46887416 -71.5625 98.01025391 C-66.79066078 87.87755156 -62.11624985 77.70446068 -57.5 67.5 C-52.40289588 56.23787013 -47.24226613 45.007848 -42 33.8125 C-41.54451782 32.83748535 -41.54451782 32.83748535 -41.07983398 31.84277344 C-39.07401526 27.55186557 -37.04728936 23.27129228 -35 19 C-34.69442169 18.35992004 -34.38884338 17.71984009 -34.07400513 17.06036377 C-33.15263893 15.13898072 -32.22064349 13.22313505 -31.28515625 11.30859375 C-30.73996338 10.18638428 -30.19477051 9.0641748 -29.63305664 7.90795898 C-26.73400896 2.74566913 -23.29846606 0.05346361 -18 -2.375 C-11.51505563 -3.72603008 -5.74306702 -3.38953563 0 0 Z " fill="#000000" transform="translate(489,45)"/>
<path d="M0 0 C3.12624975 2.85906323 5.00010547 5.52573299 6.83984375 9.33203125 C7.34338379 10.37093506 7.84692383 11.40983887 8.36572266 12.48022461 C8.88440918 13.57987549 9.4030957 14.67952637 9.9375 15.8125 C10.47165527 16.9372876 11.00581055 18.0620752 11.55615234 19.22094727 C24.13259041 46.11163739 27.91064907 73.82293114 17.8359375 102.2890625 C7.32146743 128.54132004 -11.41046472 146.60730934 -37 158 C-45.47514416 161.50374862 -53.91135768 162.97819998 -63 164 C-61.55914038 160.19160856 -59.80092656 156.6773062 -57.89453125 153.08203125 C-52.90124752 143.32230773 -49.39122019 132.98552842 -45.6875 122.6875 C-44.90071425 120.52010195 -44.11301639 118.35303482 -43.32446289 116.1862793 C-41.68997599 111.69284602 -40.05938195 107.19802949 -38.43164062 102.70214844 C-35.00197323 93.23792076 -31.52744239 83.79022016 -28.05212402 74.34268188 C-26.94075723 71.32135499 -25.83013005 68.29975722 -24.71972656 65.27807617 C-23.23938039 61.2498351 -21.75856836 57.2217658 -20.27734375 53.19384766 C-18.70873911 48.92822596 -17.14117751 44.66222266 -15.57421875 40.39599609 C-13.57878362 34.96396585 -11.58036881 29.53304007 -9.5798645 24.10287476 C-8.82228428 22.04514578 -8.06566171 19.98706397 -7.31002808 17.92861938 C-6.27046925 15.09728601 -5.22748189 12.26723951 -4.18359375 9.4375 C-3.71934998 8.16950813 -3.71934998 8.16950813 -3.24572754 6.87590027 C-1.11413024 1.11413024 -1.11413024 1.11413024 0 0 Z " fill="#000000" transform="translate(478,179)"/>
</svg>
