<?xml version="1.0" encoding="UTF-8"?>
<svg version="1.1" xmlns="http://www.w3.org/2000/svg" width="512" height="512">
<path d="M0 0 C22.61858062 22.76909939 34.89137035 54.45609349 34.875 86.375 C34.86263411 89.02102539 34.83984029 91.66656701 34.8125 94.3125 C35.84697266 94.4671875 35.84697266 94.4671875 36.90234375 94.625 C56.27109844 99.20070581 73.78685618 116.12979802 84.36230469 132.40405273 C98.34591834 155.07748345 102.45588811 182.36608926 96.35595703 208.23779297 C89.73273568 233.52266945 74.11484698 254.36636534 51.7421875 267.81640625 C37.05403446 276.22057537 21.73374457 280.45668523 4.8125 280.625 C3.35457031 280.66850586 3.35457031 280.66850586 1.8671875 280.71289062 C-4.16872101 280.76634213 -7.59889978 280.34043524 -12.1875 276.3125 C-15.11707849 272.50404796 -15.1875 271.36867203 -15.1875 266.3125 C-25.0875 266.3125 -34.9875 266.3125 -45.1875 266.3125 C-45.5175 267.9625 -45.8475 269.6125 -46.1875 271.3125 C-51.80910676 284.81995136 -59.82563862 297.1371002 -69.1875 308.3125 C-69.67331543 308.89467285 -70.15913086 309.4768457 -70.65966797 310.07666016 C-86.24006704 328.45767891 -110.44880961 347.30431315 -134.9375 350.125 C-157.86730767 351.45846543 -178.45733669 338.88044511 -195.1875 324.3125 C-196.61642578 323.10013672 -196.61642578 323.10013672 -198.07421875 321.86328125 C-212.4606358 309.38902693 -223.1898641 293.53102928 -231.75 276.625 C-232.09699951 275.94131348 -232.44399902 275.25762695 -232.80151367 274.55322266 C-234.2404489 271.6222359 -235.1875 269.62048456 -235.1875 266.3125 C-249.5425 266.8075 -249.5425 266.8075 -264.1875 267.3125 C-265.1775 269.9525 -266.1675 272.5925 -267.1875 275.3125 C-274.1202421 281.90705955 -281.41861915 280.63035768 -290.4921875 280.5234375 C-297.38452952 280.34021476 -303.57039437 279.34555932 -310.1875 277.3125 C-310.80753906 277.12445801 -311.42757812 276.93641602 -312.06640625 276.74267578 C-337.33995455 268.84783229 -357.2485863 251.47390424 -369.48779297 228.11474609 C-381.43862509 204.00947966 -382.20327358 176.55751133 -373.90234375 151.20703125 C-368.73594448 136.73152199 -359.93415301 125.07486449 -349.1875 114.3125 C-348.47078125 113.58417969 -347.7540625 112.85585937 -347.015625 112.10546875 C-339.63982173 105.07627278 -325.84805962 94.3125 -315.1875 94.3125 C-315.23970703 93.27416016 -315.23970703 93.27416016 -315.29296875 92.21484375 C-315.80824527 73.59127827 -309.95590553 55.7947936 -298.1875 41.3125 C-297.52105469 40.48363281 -296.85460937 39.65476562 -296.16796875 38.80078125 C-283.29087909 23.64989918 -265.75045821 14.57228666 -246.125 11.5625 C-228.23652237 10.42672364 -212.21899484 13.029561 -196.1875 21.3125 C-195.57003906 20.49007812 -194.95257813 19.66765625 -194.31640625 18.8203125 C-188.91310506 11.67681942 -183.32671242 4.84704049 -177.1875 -1.6875 C-176.65125 -2.28820312 -176.115 -2.88890625 -175.5625 -3.5078125 C-155.44399406 -25.13520638 -123.18369005 -36.53331422 -94.27734375 -37.62109375 C-58.17013504 -38.44230151 -25.78188984 -25.05058845 0 0 Z " fill="#CCF5F8" transform="translate(396.1875,99.6875)"/>
<path d="M0 0 C22.61858062 22.76909939 34.89137035 54.45609349 34.875 86.375 C34.86263411 89.02102539 34.83984029 91.66656701 34.8125 94.3125 C35.84697266 94.4671875 35.84697266 94.4671875 36.90234375 94.625 C56.27109844 99.20070581 73.78685618 116.12979802 84.36230469 132.40405273 C98.34591834 155.07748345 102.45588811 182.36608926 96.35595703 208.23779297 C89.73273568 233.52266945 74.11484698 254.36636534 51.7421875 267.81640625 C37.05403446 276.22057537 21.73374457 280.45668523 4.8125 280.625 C3.35457031 280.66850586 3.35457031 280.66850586 1.8671875 280.71289062 C-4.1751837 280.76639936 -7.58316504 280.32463754 -12.1875 276.3125 C-15.33539494 272.63995591 -15.71840208 269.2764438 -15.53125 264.58984375 C-14.96022568 260.8068076 -13.62422574 258.22704967 -11.1875 255.3125 C-5.41267605 251.18440319 -0.72227955 250.73227386 6.25 250.4375 C24.10924495 249.20475371 39.86313505 242.59244741 52.265625 229.23828125 C66.23072385 211.85243849 69.54756225 193.02922176 67.8125 171.3125 C65.2997249 155.53785634 55.52051271 141.46810761 43.25 131.6875 C35.16419158 125.82528889 26.40622001 122.12751258 16.75 119.6875 C11.30770567 118.30494946 8.18859764 116.56391801 5.19702148 111.66943359 C3.59081898 107.77500856 3.49647637 104.53813685 3.66015625 100.4140625 C3.68840258 98.86588999 3.71638852 97.3177127 3.74414062 95.76953125 C3.80560674 93.36968047 3.87396956 90.970251 3.94946289 88.57080078 C4.7110646 62.31601509 -4.62144478 39.0310062 -22.66943359 19.82617188 C-30.03485889 12.48206818 -38.82930042 6.77708518 -48.1875 2.3125 C-49.10789062 1.87292969 -50.02828125 1.43335938 -50.9765625 0.98046875 C-74.4899546 -9.50865899 -100.44402244 -9.94882551 -124.49560547 -0.81054688 C-149.7184124 9.35845982 -165.72384565 27.75227074 -177.484375 51.5703125 C-179.98790983 55.60123327 -182.69519521 57.81506507 -187.1875 59.3125 C-192.29219209 59.91814143 -194.99997391 59.84726998 -199.125 56.6875 C-200.4839142 55.56823928 -201.83799944 54.44309303 -203.1875 53.3125 C-216.60455382 43.09607925 -229.6397284 40.58103889 -246.1875 42.3125 C-250.23191998 43.134238 -253.561543 44.36377436 -257.1875 46.3125 C-258.05503906 46.75980469 -258.92257812 47.20710938 -259.81640625 47.66796875 C-269.24285595 52.90800711 -275.37642265 59.67744697 -280.1875 69.3125 C-280.53893066 69.98434326 -280.89036133 70.65618652 -281.25244141 71.34838867 C-284.78605924 78.8885855 -284.52080237 85.80492788 -284.1875 94 C-283.55995086 109.57106293 -283.55995086 109.57106293 -288.1875 115.3125 C-292.45676213 118.05127193 -296.67283319 119.48710053 -301.49853516 121.01074219 C-320.432872 127.00907907 -333.29450572 137.69135913 -342.5 155.375 C-347.03720596 164.43641134 -348.72798676 172.91459531 -348.625 183 C-348.61670166 184.05292236 -348.60840332 185.10584473 -348.59985352 186.19067383 C-348.21438244 204.08284214 -342.00515509 219.71240985 -329.28125 232.515625 C-316.14787972 244.88344908 -300.60739764 249.84130923 -282.875 250.6875 C-277.10051326 251.06312813 -273.7124684 251.67285151 -269.1875 255.3125 C-266.01525766 259.15258284 -264.28780249 262.29737557 -264.1875 267.3125 C-265.39815773 272.84081319 -267.3192855 276.19184968 -272.1875 279.3125 C-281.8919943 284.16474715 -300.24440281 280.36744692 -310.1875 277.3125 C-310.80753906 277.12445801 -311.42757812 276.93641602 -312.06640625 276.74267578 C-337.33995455 268.84783229 -357.2485863 251.47390424 -369.48779297 228.11474609 C-381.43862509 204.00947966 -382.20327358 176.55751133 -373.90234375 151.20703125 C-368.73594448 136.73152199 -359.93415301 125.07486449 -349.1875 114.3125 C-348.47078125 113.58417969 -347.7540625 112.85585937 -347.015625 112.10546875 C-339.63982173 105.07627278 -325.84805962 94.3125 -315.1875 94.3125 C-315.23970703 93.27416016 -315.23970703 93.27416016 -315.29296875 92.21484375 C-315.80824527 73.59127827 -309.95590553 55.7947936 -298.1875 41.3125 C-297.52105469 40.48363281 -296.85460937 39.65476562 -296.16796875 38.80078125 C-283.29087909 23.64989918 -265.75045821 14.57228666 -246.125 11.5625 C-228.23652237 10.42672364 -212.21899484 13.029561 -196.1875 21.3125 C-195.57003906 20.49007812 -194.95257813 19.66765625 -194.31640625 18.8203125 C-188.91310506 11.67681942 -183.32671242 4.84704049 -177.1875 -1.6875 C-176.65125 -2.28820312 -176.115 -2.88890625 -175.5625 -3.5078125 C-155.44399406 -25.13520638 -123.18369005 -36.53331422 -94.27734375 -37.62109375 C-58.17013504 -38.44230151 -25.78188984 -25.05058845 0 0 Z " fill="#1A83A8" transform="translate(396.1875,99.6875)"/>
<path d="M0 0 C0.91042053 0.45634323 0.91042053 0.45634323 1.8392334 0.92190552 C3.80998986 1.9119581 5.77612869 2.91081199 7.7421875 3.91015625 C9.11359736 4.60182259 10.48518067 5.29314515 11.85693359 5.98413086 C19.74075711 9.96391695 27.58349686 14.01537423 35.375 18.17333984 C44.00943484 22.7594299 52.7800239 27.07940268 61.54150391 31.41625977 C62.70343262 31.99303467 63.86536133 32.56980957 65.0625 33.1640625 C66.10937988 33.68170166 67.15625977 34.19934082 68.23486328 34.73266602 C70.6171875 35.97265625 70.6171875 35.97265625 71.6171875 36.97265625 C74.47782758 74.44235173 61.35203444 116.32221856 37.05859375 144.9921875 C25.93837046 157.69473505 9.96226465 171.97304552 -7.12890625 175.546875 C-23.37687587 176.23075181 -38.07189728 163.92763491 -49.5078125 153.66015625 C-68.73091478 135.8658811 -79.33355163 112.75252754 -86.3828125 87.97265625 C-86.58390625 87.29912109 -86.785 86.62558594 -86.9921875 85.93164062 C-91.79738902 69.77902066 -92.89850331 52.76125721 -92.3828125 35.97265625 C-91.8252124 35.71162109 -91.2676123 35.45058594 -90.69311523 35.18164062 C-81.09884146 30.67967426 -71.55719862 26.15768433 -62.25390625 21.07739258 C-55.74973657 17.5638554 -49.06973651 14.4266998 -42.38378906 11.27661133 C-37.27429869 8.86192708 -32.20859815 6.39083374 -27.19140625 3.7890625 C-26.19568604 3.27577393 -25.19996582 2.76248535 -24.17407227 2.23364258 C-22.26873509 1.24644026 -20.36915495 0.24802435 -18.47631836 -0.76293945 C-17.6178833 -1.20597412 -16.75944824 -1.64900879 -15.875 -2.10546875 C-15.12589355 -2.5015332 -14.37678711 -2.89759766 -13.60498047 -3.30566406 C-8.61324015 -4.92680056 -4.42867217 -2.23298448 0 0 Z " fill="#FDFEFE" transform="translate(266.3828125,245.02734375)"/>
<path d="M0 0 C1.04027344 -0.04898438 2.08054687 -0.09796875 3.15234375 -0.1484375 C14.92860305 1.4280048 26.45931376 8.9101483 37.015625 14.18359375 C38.72803219 15.03657624 40.44049664 15.88944378 42.15301514 16.74220276 C45.72126649 18.52037822 49.28787981 20.30179118 52.85351562 22.08520508 C57.40403542 24.36056692 61.95997841 26.62483456 66.51738358 28.88636684 C70.04788871 30.64046548 73.57470528 32.40188167 77.10054779 34.16533089 C78.77844715 35.00310757 80.45763135 35.83831646 82.13816071 36.67080498 C104.10908662 47.56401491 104.10908662 47.56401491 108.5 55.5 C109.20962891 56.74136719 109.20962891 56.74136719 109.93359375 58.0078125 C116.79105796 72.38713192 111.39335542 94.37428051 109.0625 109.375 C108.89427734 110.46119629 108.89427734 110.46119629 108.72265625 111.56933594 C107.03644108 121.98327593 103.96487053 131.99808401 100.79150391 142.03564453 C100.14852407 144.09895089 99.54137907 146.16779146 98.94921875 148.24609375 C93.57852982 166.07678101 83.97083022 182.15984066 72.0625 196.375 C71.57668457 196.95717285 71.09086914 197.5393457 70.59033203 198.13916016 C55.00993296 216.52017891 30.80119039 235.36681315 6.3125 238.1875 C-16.61730767 239.52096543 -37.20733669 226.94294511 -53.9375 212.375 C-54.89011719 211.56675781 -55.84273437 210.75851562 -56.82421875 209.92578125 C-74.13691803 194.9141899 -90.38945653 172.38208331 -96.234375 149.9765625 C-97.13133719 146.6578024 -98.25767259 143.43851892 -99.375 140.1875 C-100.2407401 137.58705173 -101.09021621 134.98150896 -101.9375 132.375 C-102.46730469 130.77011719 -102.46730469 130.77011719 -103.0078125 129.1328125 C-108.21151572 111.71884503 -110.23850388 92.75173703 -110.4375 74.625 C-110.45586914 73.72845703 -110.47423828 72.83191406 -110.49316406 71.90820312 C-110.40555979 62.65018366 -107.42733454 55.05249971 -100.9375 48.375 C-98.03092957 46.36521912 -98.03092957 46.36521912 -94.77026367 44.57983398 C-94.16699092 44.24733108 -93.56371817 43.91482817 -92.94216442 43.57224941 C-84.94040286 39.20827229 -76.77173323 35.15795281 -68.61328125 31.09765625 C-66.89155173 30.23738923 -65.16997146 29.37682345 -63.4485321 28.51597595 C-59.87390496 26.72943742 -56.29796761 24.94556021 -52.72094727 23.16381836 C-48.13464826 20.87923783 -43.55106021 18.58927946 -38.96833515 16.29753971 C-35.42876386 14.52788975 -31.88815602 12.76032254 -28.34718895 10.99346733 C-26.65523606 10.14908075 -24.96352414 9.30421115 -23.27205849 8.45884895 C-20.92106011 7.28443099 -18.56876558 6.1126527 -16.21606445 4.94165039 C-15.17119873 4.41887764 -15.17119873 4.41887764 -14.10522461 3.88554382 C-9.21680383 1.45761676 -5.46044009 0.1720866 0 0 Z M-5.7578125 32.15625 C-6.92449463 32.74696289 -8.09117676 33.33767578 -9.29321289 33.94628906 C-9.90858917 34.26118286 -10.52396545 34.57607666 -11.1579895 34.9005127 C-14.35061738 36.53409536 -17.55249865 38.14933478 -20.75390625 39.765625 C-21.38326584 40.08392273 -22.01262543 40.40222046 -22.66105652 40.73016357 C-27.40011366 43.12095637 -32.17737308 45.40884573 -37 47.625 C-43.73331844 50.73140624 -50.27192871 54.15044959 -56.81201172 57.64306641 C-64.72060003 61.84322764 -72.79900104 65.64442045 -80.9375 69.375 C-82.19187815 110.21197744 -70.4209304 152.64885668 -42.20214844 183.03198242 C-31.97993717 193.72976691 -15.21635647 208.16199216 0.375 209 C18.06651151 208.69497394 34.5443905 192.71321396 46.3359375 181.14453125 C60.97426401 165.81281033 70.08727636 145.47152554 76.0625 125.375 C76.42085937 124.22128906 76.77921875 123.06757813 77.1484375 121.87890625 C82.05031431 105.05404337 83.64465265 87.8395795 83.0625 70.375 C73.44977255 65.26416075 63.81579374 60.21317992 54.0625 55.375 C47.55690109 52.14742093 41.10199205 48.84250826 34.6875 45.4375 C27.51379695 41.639389 20.30654569 37.91230045 13.0625 34.25 C12.11197754 33.764104 11.16145508 33.27820801 10.18212891 32.77758789 C9.29702637 32.33278076 8.41192383 31.88797363 7.5 31.4296875 C6.71496094 31.03249512 5.92992187 30.63530273 5.12109375 30.22607422 C0.77272255 28.42834865 -1.81282093 30.14225031 -5.7578125 32.15625 Z " fill="#1B83A8" transform="translate(254.9375,211.625)"/>
<path d="M0 0 C4.40608743 2.16298837 7.1987497 4.39680479 9 9 C9.79650501 14.20383273 9.85018329 18.05685629 6.859375 22.50390625 C4.25038259 25.91850821 1.19908126 28.52652754 -2.25 31.0625 C-3.49902891 32.01087387 -4.74634843 32.96150214 -5.9921875 33.9140625 C-6.97203613 34.66091309 -6.97203613 34.66091309 -7.97167969 35.42285156 C-11.51064787 38.17462509 -14.93390216 41.06505482 -18.375 43.9375 C-24.110634 48.69554367 -29.9242258 53.32593483 -35.875 57.8125 C-36.54708496 58.32224365 -37.21916992 58.8319873 -37.91162109 59.35717773 C-42.68805652 62.92071642 -45.81901333 64.08134009 -51.76953125 64.42578125 C-57.51372389 63.32925411 -61.2323008 58.91240656 -64.75 54.5625 C-65.16757568 54.04824463 -65.58515137 53.53398926 -66.01538086 53.00415039 C-67.35490397 51.34480083 -68.67893814 49.67407551 -70 48 C-70.46615723 47.4131543 -70.93231445 46.82630859 -71.41259766 46.22167969 C-72.80330807 44.46594965 -74.18513703 42.70371545 -75.5625 40.9375 C-75.99208008 40.389729 -76.42166016 39.84195801 -76.86425781 39.27758789 C-80.61011044 34.40813162 -81.46211027 30.61668473 -81.41796875 24.578125 C-80.72382199 20.29647208 -78.30825045 17.67088109 -75 15 C-71.21165663 12.77899085 -68.40227294 12.62049371 -64 13 C-59.31738032 14.92556323 -56.48353728 17.24987766 -53.1875 21.0625 C-52.41792969 21.94035156 -51.64835937 22.81820313 -50.85546875 23.72265625 C-49 26 -49 26 -48 28 C-44.137662 26.32194539 -41.0134885 23.79635866 -37.75 21.1875 C-37.14881348 20.7119165 -36.54762695 20.23633301 -35.92822266 19.74633789 C-32.48256279 17.01127361 -29.06607265 14.24225625 -25.6640625 11.453125 C-24.94895508 10.86764893 -24.23384766 10.28217285 -23.49707031 9.67895508 C-22.10525624 8.53677724 -20.71646826 7.39089978 -19.33105469 6.2409668 C-18.69329102 5.71672119 -18.05552734 5.19247559 -17.3984375 4.65234375 C-16.55804932 3.95612915 -16.55804932 3.95612915 -15.70068359 3.24584961 C-10.68693178 -0.42701509 -6.07501834 -0.77737202 0 0 Z " fill="#1B84A8" transform="translate(292,301)"/>
</svg>
