<?xml version="1.0" encoding="UTF-8"?>
<svg version="1.1" xmlns="http://www.w3.org/2000/svg" width="512" height="512">
<path d="M0 0 C3.62557665 1.89483042 7.15589154 3.93632887 10.6875 6 C18.56219991 10.52806439 26.48989439 14.89726166 34.5625 19.0625 C44.85021053 24.37630643 55.01998145 29.88377377 65.17138672 35.45263672 C70.10527384 38.15166801 75.05318218 40.82476537 80 43.5 C88.58084652 48.14304662 97.15165285 52.80401222 105.71313477 57.48266602 C110.4362384 60.06209344 115.16458115 62.63117751 119.90234375 65.18359375 C130.15551576 70.70785689 140.38833467 76.26883795 150.5625 81.9375 C151.50794678 82.45691162 152.45339355 82.97632324 153.42749023 83.51147461 C162.49641608 88.6004001 168.64887647 92.84462497 172 103 C172.50945856 106.15395322 172.54233176 109.22160716 172.50793457 112.41174316 C172.51417453 113.31554797 172.5204145 114.21935277 172.52684355 115.1505456 C172.54270109 118.15597371 172.53019768 121.1605826 172.51757812 124.16601562 C172.52300245 126.33005748 172.53012685 128.49409563 172.53881836 130.65812683 C172.55701751 136.519674 172.54999811 142.38093881 172.53730202 148.24249077 C172.52715677 154.38420229 172.53657194 160.52589005 172.54284668 166.66760254 C172.55011862 176.9804314 172.5405472 187.29314559 172.52148438 197.60595703 C172.49971661 209.5195041 172.50676829 221.43277733 172.52879 233.34631777 C172.54695683 243.58522014 172.54949601 253.82404019 172.53903532 264.06295347 C172.53280749 270.17375392 172.53194533 276.28442577 172.54518127 282.3952179 C172.55675771 288.14092607 172.54868087 293.88628205 172.52560425 299.63195229 C172.5203268 301.73739856 172.52181437 303.84287461 172.53065491 305.94830894 C172.54163195 308.82868825 172.52782052 311.70794829 172.50793457 314.58825684 C172.51685746 315.41580176 172.52578034 316.24334668 172.53497362 317.09596872 C172.44288941 324.0011842 170.51737487 330.00217188 166.03515625 335.33984375 C165.05869141 336.13068359 165.05869141 336.13068359 164.0625 336.9375 C163.08990234 337.75541016 163.08990234 337.75541016 162.09765625 338.58984375 C156.26856193 342.5084714 150.00132865 343.2492338 143.08789062 342.44433594 C135.47782353 340.82479406 128.59975968 335.9187584 122 332 C120.11043026 330.90182808 118.21977181 329.8055277 116.328125 328.7109375 C112.28601931 326.36537758 108.25415971 324.00318483 104.2265625 321.6328125 C98.11277832 318.04807725 91.94158061 314.57320849 85.75 311.125 C76.76020421 306.11662147 67.80450864 301.05231621 58.875 295.9375 C50.43012891 291.10095486 41.97698439 286.28011451 33.5 281.5 C27.37664343 278.04653022 21.25959056 274.58248956 15.15625 271.09375 C14.5701445 270.75879517 13.984039 270.42384033 13.38017273 270.07873535 C10.40106102 268.37541224 7.42360446 266.66927367 4.44848633 264.95898438 C-1.21801508 261.70539325 -6.90115748 258.49202408 -12.64453125 255.375 C-14.2078418 254.51841797 -14.2078418 254.51841797 -15.80273438 253.64453125 C-17.73824156 252.58697314 -19.68050374 251.54163628 -21.63085938 250.51171875 C-29.75553936 246.04945928 -35.12788613 241.10317225 -38.35830331 232.25729465 C-39.43091018 228.48418847 -39.41325789 224.82925703 -39.38095093 220.92956543 C-39.3856309 220.0504108 -39.39031087 219.17125617 -39.39513266 218.26546049 C-39.40703997 215.33762469 -39.39764213 212.41026065 -39.38818359 209.48242188 C-39.39225118 207.37601957 -39.39759412 205.26961941 -39.40411377 203.16322327 C-39.41777078 197.45461084 -39.41249531 191.74616137 -39.40297651 186.03754616 C-39.3953716 180.0581888 -39.40242784 174.07884522 -39.40713501 168.0994873 C-39.41259012 158.05897522 -39.40540731 148.01852937 -39.39111328 137.97802734 C-39.37478728 126.37637317 -39.38007596 114.77487717 -39.3965925 103.17322683 C-39.41021427 93.20528101 -39.41212362 83.23738276 -39.40427649 73.26943064 C-39.3996038 67.31907465 -39.39896408 61.36879296 -39.40888596 55.41844177 C-39.41756334 49.82382759 -39.4115194 44.22941699 -39.39420319 38.63482475 C-39.3902425 36.58378372 -39.39136521 34.53272551 -39.39799118 32.48169136 C-39.40621319 29.67770919 -39.39587705 26.87437564 -39.38095093 24.07043457 C-39.38764309 23.26264038 -39.39433526 22.45484618 -39.40123022 21.62257338 C-39.32764309 14.47455419 -37.6157584 7.82015468 -32.62890625 2.38671875 C-22.21593585 -6.47804022 -11.68019595 -5.38296402 0 0 Z " fill="#000000" transform="translate(66,170)"/>
<path d="M0 0 C5.73785531 3.22013183 9.26817126 7.52549614 11.74305153 13.58398056 C12.89827569 17.76236436 12.97136595 21.50489548 12.95492554 25.81646729 C12.95945665 26.69250193 12.96398776 27.56853658 12.96865618 28.47111773 C12.98129504 31.40039546 12.97968013 34.32948713 12.97802734 37.25878906 C12.98401295 39.36165099 12.99081857 41.46451071 12.99838257 43.56736755 C13.0160475 49.27619107 13.02073819 54.98495463 13.02201414 60.69380283 C13.02343614 64.26221146 13.02770669 67.83060486 13.03300858 71.3990097 C13.05151124 83.85309313 13.05967898 96.30713375 13.05810547 108.76123047 C13.05690435 120.36169078 13.0780003 131.96196495 13.1095928 143.56237817 C13.13576542 153.52861157 13.14647233 163.49478421 13.14519465 173.4610517 C13.14468526 179.41042356 13.15035563 185.35963003 13.17155075 191.30896759 C13.19094931 196.90687321 13.1910463 202.50445595 13.17651749 208.10237312 C13.17443024 210.15258062 13.17912519 212.20280841 13.1912384 214.25298119 C13.31564354 236.77414275 13.31564354 236.77414275 6.91730309 243.99881363 C1.80536391 248.98006131 -4.57633514 252.21088979 -10.8125 255.5625 C-13.05575922 256.79231797 -15.29792063 258.02414021 -17.5390625 259.2578125 C-19.23724121 260.19028809 -19.23724121 260.19028809 -20.96972656 261.14160156 C-26.09214621 263.98938555 -31.13927605 266.96078573 -36.1875 269.9375 C-45.78871197 275.58122033 -55.49475367 281.0140525 -65.24560547 286.39428711 C-72.66165852 290.49727022 -80.00765175 294.70245979 -87.3125 299 C-96.86458806 304.61962153 -106.51967179 310.02980291 -116.22412109 315.38134766 C-123.86109349 319.60481649 -131.41519449 323.95103346 -138.9375 328.375 C-141.83982224 330.06609084 -144.74373256 331.75441188 -147.6484375 333.44140625 C-149.36271556 334.44433432 -151.07155926 335.45664041 -152.7734375 336.48046875 C-162.24323069 342.17191011 -169.8744182 346.08368157 -181.3125 344 C-187.91861511 342.22474105 -192.60069073 337.63793732 -196.3125 332 C-198.44359672 326.89277926 -198.6023636 322.39092733 -198.58665466 316.95574951 C-198.59189134 316.05521355 -198.59712802 315.15467759 -198.60252339 314.22685266 C-198.61750372 311.2146665 -198.61822811 308.20265051 -198.61889648 305.19042969 C-198.6265193 303.02845473 -198.63494701 300.86648249 -198.64411926 298.70451355 C-198.66605945 292.83454466 -198.67486258 286.96462787 -198.67994571 281.09462261 C-198.68358994 277.42570822 -198.68983037 273.75680745 -198.6969471 270.08789825 C-198.72144025 257.2836904 -198.73449314 244.47952305 -198.73803711 231.67529297 C-198.74167191 219.74760894 -198.77156385 207.8201823 -198.81344169 195.89257693 C-198.84815354 185.64609101 -198.86358571 175.39969035 -198.86428314 165.15314603 C-198.86507567 159.03605899 -198.87380338 152.91923414 -198.90228081 146.80220795 C-198.9284763 141.04666819 -198.93065796 135.29160775 -198.91462517 129.53603554 C-198.91281187 127.42777015 -198.91949054 125.3194771 -198.93544388 123.21127129 C-199.0951135 100.7346581 -199.0951135 100.7346581 -190.5 91.91015625 C-185.04357905 87.71347473 -178.67273994 84.73593789 -172.56900024 81.59796143 C-168.72736961 79.62230723 -164.90133859 77.61686054 -161.07421875 75.61328125 C-160.31509689 75.21667297 -159.55597504 74.8200647 -158.77384949 74.41143799 C-152.48124572 71.11389109 -146.28497339 67.66425421 -140.125 64.125 C-131.82568536 59.36575093 -123.41467752 54.88639871 -114.91064453 50.50488281 C-108.3511984 47.10828395 -101.90797772 43.54842108 -95.5 39.875 C-85.15937415 33.95158827 -74.65158044 28.37785318 -64.10189819 22.83947754 C-53.82852697 17.44350163 -43.65375429 11.92886399 -33.640625 6.05859375 C-22.814485 -0.21182584 -12.29324461 -5.43704222 0 0 Z " fill="#000000" transform="translate(472.3125,168)"/>
<path d="M0 0 C6.39356596 2.66955512 12.49866274 5.91066548 18.60839844 9.16650391 C20.07767116 9.93232393 21.54767964 10.69673467 23.01855469 11.45947266 C26.0258532 13.02701636 29.02218239 14.61381459 32.01464844 16.20947266 C39.25882616 20.05828147 46.56253639 23.79195664 53.85839844 27.54150391 C63.37151409 32.43328205 72.87926739 37.33406645 82.35839844 42.29150391 C90.80558623 46.70897265 99.26539413 51.10159494 107.73339844 55.47900391 C108.34185608 55.79354523 108.95031372 56.10808655 109.57720947 56.43215942 C112.67731095 58.03463105 115.77757594 59.63678603 118.87792969 61.23876953 C122.56964921 63.14636696 126.2609694 65.05473589 129.95214844 66.96337891 C130.55520309 67.27515076 131.15825775 67.58692261 131.77958679 67.90814209 C134.79595063 69.46774633 137.81174027 71.02844356 140.82641602 72.59130859 C146.29877877 75.4273013 151.77431594 78.25605219 157.2677002 81.05116272 C159.73269194 82.30624224 162.19481565 83.56688842 164.65667725 84.82809448 C166.36198971 85.69892183 168.07131084 86.56188533 169.78076172 87.42456055 C189.01689931 97.2923335 189.01689931 97.2923335 192.21777344 107.01806641 C193.45147801 113.80344154 193.75671065 121.23076773 190.00878906 127.24291992 C184.22013856 135.19424093 175.36869729 139.21569175 166.79589844 143.47900391 C165.4855248 144.14171996 164.17579767 144.80571581 162.86669922 145.47094727 C160.28231215 146.78338765 157.6956208 148.09108309 155.10693359 149.39501953 C150.70559786 151.62363726 146.34009961 153.91470472 141.98339844 156.22900391 C134.37979186 160.2496617 126.74675116 164.2123035 119.10839844 168.16650391 C111.42875085 172.14223187 103.75510422 176.12775085 96.10839844 180.16650391 C87.28966071 184.82428792 78.43384523 189.40952482 69.57714844 193.99462891 C63.07544097 197.36263052 56.58317114 200.74702571 50.10839844 204.16650391 C40.08811244 209.45477315 30.04014866 214.68889252 19.96386719 219.86962891 C16.2045066 221.80558041 12.47529855 223.77548449 8.78417969 225.83837891 C0.82241305 230.23517541 -6.16427603 233.4436336 -15.39160156 231.16650391 C-22.69774134 228.49561239 -29.54934117 224.83704748 -36.39160156 221.16650391 C-37.25930176 220.70131348 -38.12700195 220.23612305 -39.02099609 219.75683594 C-42.55617146 217.8497982 -46.08206737 215.92706453 -49.59643555 213.98193359 C-57.28699239 209.72858344 -65.07435901 205.67977044 -72.89160156 201.66650391 C-82.33602885 196.814581 -91.70693916 191.85355985 -101.00488281 186.72509766 C-108.56657009 182.57336599 -116.21963038 178.60888239 -123.89160156 174.66650391 C-133.37460593 169.79339156 -142.78749673 164.81641789 -152.12353516 159.66577148 C-160.6177472 154.9981133 -169.22527338 150.55535805 -177.85693359 146.14868164 C-202.69483374 133.39931052 -202.69483374 133.39931052 -207.82910156 123.35400391 C-209.27610075 115.15434187 -208.89448339 108.92703767 -205.07128906 101.45556641 C-200.01891779 94.57024184 -192.34303577 91.23245333 -184.95410156 87.35400391 C-183.71737616 86.69844027 -182.48089032 86.04242452 -181.24462891 85.38598633 C-171.37883319 80.16043091 -161.45198403 75.05215014 -151.51986694 69.95410156 C-143.54247146 65.85895295 -135.61266605 61.69711642 -127.76660156 57.35400391 C-117.11309376 51.45950176 -106.27121594 45.94519964 -95.42895508 40.40905762 C-85.48199533 35.32751249 -75.59899765 30.16898912 -65.82910156 24.75268555 C-56.94290047 19.85758496 -47.91707927 15.2353992 -38.89160156 10.60400391 C-38.11572693 10.20583466 -37.33985229 9.80766541 -36.54046631 9.39743042 C-31.82758919 6.98040184 -27.11285857 4.56712653 -22.39160156 2.16650391 C-21.30758057 1.60624512 -20.22355957 1.04598633 -19.10668945 0.46875 C-13.01368579 -2.4536564 -6.30183471 -2.19624987 0 0 Z " fill="#000000" transform="translate(262.3916015625,0.83349609375)"/>
</svg>
