<?xml version="1.0" encoding="UTF-8"?>
<svg version="1.1" xmlns="http://www.w3.org/2000/svg" width="512" height="512">
<path d="M0 0 C1.01790619 0.00215515 2.03581238 0.0043103 3.08456421 0.00653076 C17.69363523 0.05620146 32.02575853 0.30709809 46.375 3.3125 C47.34985352 3.51117676 48.32470703 3.70985352 49.32910156 3.91455078 C97.7109774 14.03517194 141.69928269 35.9516877 177.375 70.3125 C178.3640332 71.26068604 178.3640332 71.26068604 179.37304688 72.22802734 C188.86130305 81.37247479 197.6012044 90.66984009 205.375 101.3125 C206.23306152 102.46355017 207.09113451 103.61459177 207.94921875 104.765625 C213.98736829 112.95680614 219.34595521 121.47054105 224.375 130.3125 C224.73948242 130.94430176 225.10396484 131.57610352 225.47949219 132.22705078 C247.08534998 169.97532572 256.85198095 212.74189997 256.6875 255.9375 C256.68534485 256.95540619 256.6831897 257.97331238 256.68096924 259.02206421 C256.63129854 273.63113523 256.38040191 287.96325853 253.375 302.3125 C253.07698486 303.77478027 253.07698486 303.77478027 252.77294922 305.26660156 C242.65232806 353.6484774 220.7358123 397.63678269 186.375 433.3125 C185.74287598 433.97185547 185.11075195 434.63121094 184.45947266 435.31054688 C175.31502521 444.79880305 166.01765991 453.5387044 155.375 461.3125 C154.22394983 462.17056152 153.07290823 463.02863451 151.921875 463.88671875 C143.73224019 469.92427396 135.22961724 475.30707302 126.375 480.3125 C125.66778809 480.7146875 124.96057617 481.116875 124.23193359 481.53125 C101.09654164 494.5566741 75.92537591 503.30551461 49.9375 508.625 C49.21860596 508.77235596 48.49971191 508.91971191 47.7590332 509.0715332 C33.08339502 511.86090125 18.55831162 512.66142619 3.64770508 512.62817383 C0.70811513 512.6250221 -2.2304558 512.64854926 -5.16992188 512.67382812 C-18.54306192 512.71848737 -31.43916711 511.51301542 -44.625 509.3125 C-46.33055054 509.03031616 -46.33055054 509.03031616 -48.07055664 508.74243164 C-91.33802759 500.97044532 -132.38793216 480.98345309 -165.625 452.3125 C-166.37007813 451.67828125 -167.11515625 451.0440625 -167.8828125 450.390625 C-181.38779833 438.57948485 -194.05918743 425.82889772 -204.625 411.3125 C-205.48149066 410.16255169 -206.33826433 409.01281411 -207.1953125 407.86328125 C-213.23534209 399.67315742 -218.61867614 391.16870382 -223.625 382.3125 C-224.0271875 381.60528809 -224.429375 380.89807617 -224.84375 380.16943359 C-237.8691741 357.03404164 -246.61801461 331.86287591 -251.9375 305.875 C-252.08485596 305.15610596 -252.23221191 304.43721191 -252.3840332 303.6965332 C-255.35789088 288.05024391 -255.99800362 272.57681954 -255.9375 256.6875 C-255.93534485 255.66959381 -255.9331897 254.65168762 -255.93096924 253.60293579 C-255.88129854 238.99386477 -255.63040191 224.66174147 -252.625 210.3125 C-252.42632324 209.33764648 -252.22764648 208.36279297 -252.02294922 207.35839844 C-241.90232806 158.9765226 -219.9858123 114.98821731 -185.625 79.3125 C-184.99287598 78.65314453 -184.36075195 77.99378906 -183.70947266 77.31445312 C-174.56502521 67.82619695 -165.26765991 59.0862956 -154.625 51.3125 C-153.47394983 50.45443848 -152.32290823 49.59636549 -151.171875 48.73828125 C-142.98224019 42.70072604 -134.47961724 37.31792698 -125.625 32.3125 C-124.91778809 31.9103125 -124.21057617 31.508125 -123.48193359 31.09375 C-100.34654164 18.0683259 -75.17537591 9.31948539 -49.1875 4 C-48.46860596 3.85264404 -47.74971191 3.70528809 -47.0090332 3.5534668 C-31.36274391 0.57960912 -15.88931954 -0.06050362 0 0 Z " fill="#5F7EDD" transform="translate(255.625,-0.3125)"/>
<path d="M0 0 C0.66 0 1.32 0 2 0 C3.45010855 2.22117283 4.76532993 4.43995299 6.0625 6.75 C6.96917692 8.32807584 7.87820213 9.90480388 8.7890625 11.48046875 C9.55138184 12.79990479 9.55138184 12.79990479 10.32910156 14.14599609 C13.11480235 18.90415538 15.99435666 23.60485211 18.86776733 28.31039429 C25.57952524 39.30352345 32.19324098 50.35129623 38.75 61.4375 C44.39847063 70.9866981 50.10964132 80.48445623 55.99560547 89.88989258 C61.92317054 99.40381266 67.60096459 109.0674608 73.29101562 118.72460938 C74.0662381 120.03785969 74.84162526 121.35101281 75.6171875 122.6640625 C75.98861877 123.29463562 76.36005005 123.92520874 76.74273682 124.57489014 C79.63950085 129.46497119 82.7102504 134.22525601 85.88720703 138.93896484 C86.25442871 139.61910645 86.62165039 140.29924805 87 141 C86.67 141.66 86.34 142.32 86 143 C84.94651367 142.50822266 83.89302734 142.01644531 82.80761719 141.50976562 C62.09477248 131.84721877 41.3495753 122.27870128 20.42675781 113.078125 C19.71409256 112.76407211 19.00142731 112.45001923 18.26716614 112.12644958 C16.36641273 111.28940358 14.46438838 110.4552452 12.56225586 109.62133789 C8.66181149 107.84607567 4.8330168 105.9165084 1 104 C1 133.37 1 162.74 1 193 C-3.13908872 191.34436451 -6.89482457 189.50098851 -10.75 187.3125 C-11.43553955 186.92513672 -12.1210791 186.53777344 -12.82739258 186.13867188 C-20.24308917 181.91453067 -27.54433572 177.50003098 -34.85107422 173.09106445 C-40.76937247 169.52422896 -46.70267002 165.98753616 -52.66796875 162.5 C-53.3112059 162.12391602 -53.95444305 161.74783203 -54.61717224 161.36035156 C-57.7396886 159.53611556 -60.86426797 157.71549433 -63.9909668 155.8984375 C-71.09986112 151.75785525 -78.09742115 147.47697032 -85 143 C-83.5889953 139.17633805 -81.81151387 135.84387557 -79.68359375 132.37109375 C-78.67449951 130.7173877 -78.67449951 130.7173877 -77.64501953 129.03027344 C-77.2861969 128.44628784 -76.92737427 127.86230225 -76.55767822 127.26062012 C-75.41373579 125.39882312 -74.27443814 123.53425309 -73.13623047 121.66894531 C-71.5452292 119.06255094 -69.9524016 116.45728801 -68.35791016 113.85302734 C-64.7698453 107.99169657 -61.19507062 102.12230901 -57.625 96.25 C-57.27895721 95.68102997 -56.93291443 95.11205994 -56.5763855 94.52584839 C-50.41141013 84.38413555 -44.34539795 74.18525494 -38.29959106 63.97216797 C-31.25396701 52.07274818 -24.1017642 40.24128596 -16.91015625 28.4296875 C-13.25359695 22.42331861 -9.6190683 16.404025 -6 10.375 C-5.50121338 9.54516602 -5.00242676 8.71533203 -4.48852539 7.86035156 C-4.03856201 7.10979492 -3.58859863 6.35923828 -3.125 5.5859375 C-2.73570312 4.9367334 -2.34640625 4.2875293 -1.9453125 3.61865234 C-1.25468048 2.4360877 -0.61244293 1.22488586 0 0 Z " fill="#FDFEFE" transform="translate(255,116)"/>
<path d="M0 0 C0 4.40753167 -2.70018702 6.85349436 -5.3125 10.1875 C-9.50806622 15.65458155 -13.57225777 21.1693364 -17.4375 26.875 C-21.3047922 32.56905686 -25.26524912 38.18237257 -29.3125 43.75 C-33.94227676 50.12102484 -38.49780573 56.53818842 -43 63 C-47.4432647 69.3757322 -51.93386955 75.71166692 -56.5 82 C-62.32933946 90.02986595 -68.0352331 98.1422494 -73.7109375 106.28125 C-74.24428711 107.04308594 -74.77763672 107.80492187 -75.32714844 108.58984375 C-76.53039954 110.32342445 -77.71950033 112.06685807 -78.89941406 113.81640625 C-79.52299805 114.73292969 -80.14658203 115.64945312 -80.7890625 116.59375 C-81.3557666 117.43615234 -81.9224707 118.27855469 -82.50634766 119.14648438 C-83.24570557 120.06397461 -83.24570557 120.06397461 -84 121 C-84.66 121 -85.32 121 -86 121 C-87.71159887 118.72093556 -89.30392625 116.43638421 -90.875 114.0625 C-91.87401285 112.58136494 -92.87404614 111.10091776 -93.875 109.62109375 C-94.39191406 108.85394043 -94.90882813 108.08678711 -95.44140625 107.29638672 C-97.87633979 103.70882643 -100.3710132 100.16457605 -102.875 96.625 C-103.37193359 95.92165527 -103.86886719 95.21831055 -104.38085938 94.49365234 C-108.54616438 88.61235901 -112.77264776 82.77617105 -117.00341797 76.94189453 C-121.66403488 70.49948048 -126.22166487 63.98802616 -130.7668457 57.46386719 C-134.6414703 51.91226251 -138.5794516 46.41170929 -142.5625 40.9375 C-147.65747237 33.93123371 -152.58022429 26.82021688 -157.44824219 19.65478516 C-161.51392381 13.67916118 -165.68593866 7.79987099 -170 2 C-165.99929285 2 -163.42971759 3.79846515 -160.0625 5.75 C-159.35504639 6.15412109 -158.64759277 6.55824219 -157.91870117 6.97460938 C-151.67868587 10.56009247 -145.51126625 14.26613889 -139.35107422 17.98657227 C-130.4188946 23.3743029 -121.41709629 28.64192856 -112.40356445 33.89208984 C-107.22797538 36.91010743 -102.05966679 39.9293349 -96.98828125 43.12109375 C-96.29387939 43.55526611 -95.59947754 43.98943848 -94.8840332 44.43676758 C-93.16484826 45.52103259 -91.45679187 46.6228918 -89.75 47.7265625 C-86.43924464 49.25966796 -85.44723593 48.98116564 -82 48 C-79.41034542 46.77080857 -79.41034542 46.77080857 -76.7734375 45.18359375 C-75.75540039 44.59239746 -74.73736328 44.00120117 -73.68847656 43.39208984 C-72.5950293 42.7470752 -71.50158203 42.10206055 -70.375 41.4375 C-69.21873289 40.76200436 -68.06215132 40.08704674 -66.90527344 39.41259766 C-63.26380057 37.28584566 -59.63128139 35.1440934 -56 33 C-54.83171353 32.31102193 -53.66341938 31.62205689 -52.49511719 30.93310547 C-45.73653151 26.94375579 -38.98758941 22.93834927 -32.2421875 18.92675781 C-27.0824834 15.86046378 -21.9167716 12.80436566 -16.75 9.75 C-15.86344727 9.22519043 -14.97689453 8.70038086 -14.06347656 8.15966797 C-9.39700393 5.40088991 -4.71455207 2.67582685 0 0 Z " fill="#C0CBF6" transform="translate(341,275)"/>
<path d="M0 0 C0.66 0 1.32 0 2 0 C3.45010855 2.22117283 4.76532993 4.43995299 6.0625 6.75 C6.96917692 8.32807584 7.87820213 9.90480388 8.7890625 11.48046875 C9.55138184 12.79990479 9.55138184 12.79990479 10.32910156 14.14599609 C13.11480235 18.90415538 15.99435666 23.60485211 18.86776733 28.31039429 C25.57952524 39.30352345 32.19324098 50.35129623 38.75 61.4375 C44.39847063 70.9866981 50.10964132 80.48445623 55.99560547 89.88989258 C61.92317054 99.40381266 67.60096459 109.0674608 73.29101562 118.72460938 C74.0662381 120.03785969 74.84162526 121.35101281 75.6171875 122.6640625 C75.98861877 123.29463562 76.36005005 123.92520874 76.74273682 124.57489014 C79.63950085 129.46497119 82.7102504 134.22525601 85.88720703 138.93896484 C86.25442871 139.61910645 86.62165039 140.29924805 87 141 C86.67 141.66 86.34 142.32 86 143 C84.94651367 142.50822266 83.89302734 142.01644531 82.80761719 141.50976562 C62.09477248 131.84721877 41.3495753 122.27870128 20.42675781 113.078125 C19.71409256 112.76407211 19.00142731 112.45001923 18.26716614 112.12644958 C16.36641273 111.28940358 14.46438838 110.4552452 12.56225586 109.62133789 C8.66181149 107.84607567 4.8330168 105.9165084 1 104 C0.67 69.68 0.34 35.36 0 0 Z " fill="#C0CBF6" transform="translate(255,116)"/>
<path d="M0 0 C4.50580797 1.50193599 8.69569989 3.13937829 12.9765625 5.1328125 C13.98330772 5.59646713 13.98330772 5.59646713 15.01039124 6.06948853 C16.45983978 6.73710491 17.90869949 7.40600092 19.35702515 8.0760498 C23.25412032 9.87847664 27.15595928 11.67054158 31.05859375 13.4609375 C31.8682106 13.83238892 32.67782745 14.20384033 33.51197815 14.58654785 C44.05416768 19.41240311 54.66077226 24.09387055 65.27001953 28.77001953 C71.92113717 31.70636302 78.54392491 34.64927164 85 38 C83.82957474 41.51127579 83.3039169 41.68501845 80.1875 43.390625 C79.3728125 43.8446167 78.558125 44.2986084 77.71875 44.76635742 C76.8215625 45.25595947 75.924375 45.74556152 75 46.25 C73.06110473 47.33213926 71.12366236 48.41688483 69.1875 49.50390625 C68.16914063 50.07512207 67.15078125 50.64633789 66.1015625 51.23486328 C61.01411378 54.13019186 56.00850363 57.15828266 51 60.1875 C40.3019613 66.64494308 29.53970976 72.98541856 18.74414062 79.27807617 C17.57811337 79.95880169 16.41209739 80.63954654 15.24609375 81.3203125 C13.62356689 82.26632324 13.62356689 82.26632324 11.96826172 83.23144531 C9.36437806 84.78289565 6.8222695 86.39749463 4.28515625 88.0546875 C3.20105469 88.69664062 2.11695313 89.33859375 1 90 C0.34 89.67 -0.32 89.34 -1 89 C-0.67 59.63 -0.34 30.26 0 0 Z " fill="#8198ED" transform="translate(256,220)"/>
<path d="M0 0 C0 29.37 0 58.74 0 89 C-4.13908872 87.34436451 -7.89482457 85.50098851 -11.75 83.3125 C-12.43553955 82.92513672 -13.1210791 82.53777344 -13.82739258 82.13867188 C-21.24308917 77.91453067 -28.54433572 73.50003098 -35.85107422 69.09106445 C-41.76937247 65.52422896 -47.70267002 61.98753616 -53.66796875 58.5 C-54.63282448 57.93587402 -54.63282448 57.93587402 -55.61717224 57.36035156 C-58.7396886 55.53611556 -61.86426797 53.71549433 -64.9909668 51.8984375 C-72.09986112 47.75785525 -79.09742115 43.47697032 -86 39 C-85 37 -85 37 -82.4074707 36.08666992 C-81.28300537 35.72806885 -80.15854004 35.36946777 -79 35 C-76.47550662 33.89929522 -73.97572318 32.77612931 -71.48046875 31.61328125 C-70.75657455 31.27915726 -70.03268036 30.94503326 -69.28684998 30.6007843 C-67.72936504 29.88155133 -66.17252469 29.16092119 -64.61627197 28.43902588 C-60.47758653 26.51939888 -56.3340716 24.61023742 -52.19140625 22.69921875 C-51.34612366 22.30891479 -50.50084106 21.91861084 -49.62994385 21.51647949 C-41.6869839 17.85038158 -33.72949208 14.21665529 -25.76504517 10.59750366 C-24.3501334 9.95452337 -22.93539642 9.31115831 -21.52084351 8.66738892 C-19.54812899 7.76960989 -17.57493498 6.8728942 -15.6015625 5.9765625 C-14.49119629 5.47205566 -13.38083008 4.96754883 -12.23681641 4.44775391 C-10.63459229 3.73111572 -10.63459229 3.73111572 -9 3 C-8.06181427 2.5785672 -8.06181427 2.5785672 -7.10467529 2.14862061 C-2.23347349 0 -2.23347349 0 0 0 Z " fill="#C1CBF6" transform="translate(256,220)"/>
<path d="M0 0 C3.52866791 1.3293978 6.71562007 2.89092269 9.96484375 4.80078125 C10.9182666 5.35902588 11.87168945 5.91727051 12.85400391 6.49243164 C13.87155762 7.0930542 14.88911133 7.69367676 15.9375 8.3125 C17.00145996 8.93697021 18.06541992 9.56144043 19.16162109 10.20483398 C22.44341297 12.13262534 25.72211445 14.06557535 29 16 C29.96341309 16.56783203 30.92682617 17.13566406 31.91943359 17.72070312 C36.4582213 20.39629974 40.99424999 23.07648689 45.52734375 25.76171875 C49.30715431 28.00041947 53.09145296 30.23128556 56.87890625 32.45703125 C82.56038569 47.56038569 82.56038569 47.56038569 85 50 C85.09425595 52.14743549 85.11742648 54.29801026 85.11352539 56.44750977 C85.11367142 57.12065216 85.11381744 57.79379456 85.1139679 58.48733521 C85.11326878 60.72205784 85.10547652 62.9566981 85.09765625 65.19140625 C85.09579206 66.73697362 85.09436816 68.28254157 85.09336853 69.82810974 C85.0895434 73.90357077 85.07971317 77.97899637 85.06866455 82.05444336 C85.05845032 86.21011882 85.05387089 90.36579999 85.04882812 94.52148438 C85.03809089 102.68100587 85.02101454 110.84049853 85 119 C79.4985502 113.55276868 79.4985502 113.55276868 77.30859375 110.390625 C76.84525635 109.72748291 76.38191895 109.06434082 75.90454102 108.38110352 C75.42041748 107.67783936 74.93629395 106.9745752 74.4375 106.25 C73.37249103 104.72258987 72.30738415 103.195248 71.2421875 101.66796875 C70.43346191 100.50273682 70.43346191 100.50273682 69.60839844 99.31396484 C67.1093611 95.71865885 64.58714656 92.13984971 62.0625 88.5625 C61.56991699 87.86334473 61.07733398 87.16418945 60.56982422 86.44384766 C56.94313064 81.30632546 53.25937665 76.21215032 49.5625 71.125 C45.0590758 64.92462359 40.67893295 58.65285332 36.375 52.3125 C32.07027608 45.9715326 27.66475935 39.73032514 23.10205078 33.57275391 C18.06207782 26.76282323 13.19618119 19.83209971 8.33203125 12.89599609 C7.1218655 11.17346178 5.90505068 9.45560357 4.6875 7.73828125 C4.048125 6.83464844 3.40875 5.93101562 2.75 5 C1.93789062 3.8553125 1.93789062 3.8553125 1.109375 2.6875 C0 1 0 1 0 0 Z " fill="#FDFDFE" transform="translate(171,276)"/>
</svg>
