<?xml version="1.0" encoding="UTF-8"?>
<svg version="1.1" xmlns="http://www.w3.org/2000/svg" width="2000" height="2000">
<path d="M0 0 C1.55744832 0.04278575 3.11485873 0.08696951 4.67223209 0.13240188 C6.34233148 0.12585496 8.01241575 0.11271038 9.68241823 0.09356439 C14.25890523 0.06009363 18.83010537 0.11988916 23.40591842 0.19523531 C28.34445112 0.26011316 33.28269417 0.2380851 38.22153324 0.2267012 C46.77374928 0.21884172 55.3242467 0.26583549 63.87603039 0.35026878 C76.2401073 0.47226196 88.60335458 0.51124856 100.9679681 0.53008866 C121.02899429 0.56290514 141.08910476 0.66269201 161.14963382 0.80462784 C180.6346133 0.94234794 200.11934392 1.04850658 219.60471195 1.11224502 C220.80610666 1.11618588 222.00750136 1.12012673 223.24530197 1.124187 C229.27244541 1.1437628 235.29959061 1.16271836 241.32673699 1.18136555 C291.31529182 1.33682576 341.3028527 1.60098618 391.29050297 1.93621963 C393.21287439 5.29768257 395.13478497 8.65940879 397.05661625 12.02118057 C397.59760456 12.96714096 398.13859287 13.91310135 398.69597477 14.8877272 C402.55298906 21.6353467 406.37922114 28.39862411 410.16550297 35.18621963 C411.34908742 37.30341233 412.53268145 39.42059967 413.71628422 41.53778213 C414.30619144 42.59384659 414.89609867 43.64991104 415.50388187 44.73797745 C418.45108832 50.01379112 421.40140025 55.28786441 424.35300297 60.56121963 C424.93291996 61.59730362 425.51283695 62.6333876 426.11032718 63.70086807 C430.51807438 71.56999684 434.95283536 79.42359652 439.39621586 87.27264541 C443.97613805 95.36774628 448.52017958 103.48266127 453.06003422 111.60028213 C456.95208333 118.55591758 460.86384069 125.50007167 464.79050297 132.43621963 C469.907851 141.47562273 474.98983477 150.53436259 480.06003422 159.60028213 C483.95208352 166.55591792 487.86390038 173.50003766 491.79050297 180.43621963 C499.25982935 193.63259672 506.65986741 206.86753763 514.06101078 220.10223526 C520.81282089 232.17421822 527.58206597 244.23572989 534.39621586 256.27264541 C538.97613805 264.36774628 543.52017958 272.48266127 548.06003422 280.60028213 C552.48173312 288.50247575 556.93214354 296.38806178 561.39377445 304.2677626 C565.99108814 312.39263179 570.54969901 320.53886196 575.099585 328.69037002 C577.98347034 333.84863467 580.88878704 338.99265306 583.84128422 344.11200088 C584.40130131 345.08379287 584.9613184 346.05558487 585.5383057 347.0568251 C586.60033547 348.89533965 587.66608818 350.73171009 588.73605961 352.56561416 C589.20519779 353.37756241 589.67433597 354.18951065 590.15769047 355.02606338 C590.5713184 355.73625625 590.98494632 356.44644912 591.41110843 357.17816299 C592.29050297 358.93621963 592.29050297 358.93621963 592.29050297 360.93621963 C459.30050297 360.93621963 326.31050297 360.93621963 189.29050297 360.93621963 C188.63050297 362.58621963 187.97050297 364.23621963 187.29050297 365.93621963 C186.44302734 367.61569495 185.56888535 369.2818899 184.67331547 370.93621963 C184.15519291 371.89455703 183.63707035 372.85289444 183.10324711 373.84027237 C182.26781376 375.37276626 182.26781376 375.37276626 181.41550297 376.93621963 C180.83469974 378.00493301 180.25389652 379.07364639 179.6554932 380.17474502 C175.48696415 387.81525646 171.21815072 395.39291642 166.87839359 402.9371962 C163.01090299 409.66118408 159.20094641 416.41571659 155.41550297 423.18621963 C154.83107425 424.23140762 154.24664554 425.27659561 153.64450687 426.35345596 C152.45511077 428.48147974 151.26598444 430.60965433 150.07712406 432.73797745 C142.14625683 446.93507512 134.19619659 461.1208253 126.18479007 475.27264541 C122.19992051 482.31597927 118.24051429 489.37328547 114.29050297 496.43621963 C109.27990794 505.39556173 104.24221245 514.33903937 99.18503422 523.27215713 C95.20013527 530.31568311 91.24060303 537.3731268 87.29050297 544.43621963 C82.27990794 553.39556173 77.24221245 562.33903937 72.18503422 571.27215713 C68.20013527 578.31568311 64.24060303 585.3731268 60.29050297 592.43621963 C55.27990794 601.39556173 50.24221245 610.33903937 45.18503422 619.27215713 C41.20013527 626.31568311 37.24060303 633.3731268 33.29050297 640.43621963 C28.28230527 649.39127512 23.24847489 658.33130722 18.19162601 667.25897354 C14.74121339 673.35520887 11.3168299 679.46544932 7.9042725 685.58294815 C1.83917964 696.45292955 -4.32902508 707.24819403 -10.70949703 717.93621963 C-13.33626567 715.56522299 -14.90406345 713.0735759 -16.60793453 709.98309463 C-17.16287594 708.98342666 -17.71781735 707.9837587 -18.28957516 706.95379776 C-18.88189938 705.87549698 -19.4742236 704.7971962 -20.08449703 703.68621963 C-21.35226179 701.39950377 -22.62050105 699.11305091 -23.88918453 696.82684463 C-24.21026181 696.24668594 -24.53133908 695.66652725 -24.86214596 695.06878799 C-27.94229158 689.50427787 -31.07186038 683.96844485 -34.20949703 678.43621963 C-39.32762443 669.39726056 -44.40883142 660.33807206 -49.47902828 651.27215713 C-53.3710774 644.31652168 -57.28283476 637.3723676 -61.20949703 630.43621963 C-66.32684507 621.39681654 -71.40882884 612.33807668 -76.47902828 603.27215713 C-80.3710774 596.31652168 -84.28283476 589.3723676 -88.20949703 582.43621963 C-93.32684507 573.39681654 -98.40882884 564.33807668 -103.47902828 555.27215713 C-107.3710774 548.31652168 -111.28283476 541.3723676 -115.20949703 534.43621963 C-120.32684507 525.39681654 -125.40882884 516.33807668 -130.47902828 507.27215713 C-134.3710774 500.31652168 -138.28283476 493.3723676 -142.20949703 486.43621963 C-147.32684507 477.39681654 -152.40882884 468.33807668 -157.47902828 459.27215713 C-161.3710774 452.31652168 -165.28283476 445.3723676 -169.20949703 438.43621963 C-174.32393567 429.40195576 -179.4033322 420.34853353 -184.47023922 411.28753799 C-187.90203472 405.15394357 -191.34693834 399.02807613 -194.81081539 392.91253799 C-195.89765612 390.99169629 -196.98186702 389.06936388 -198.0632568 387.14544815 C-200.5991589 382.63643383 -203.16433838 378.15234097 -205.81496578 373.70965713 C-206.29417477 372.89102188 -206.77338375 372.07238662 -207.26711422 371.22894424 C-208.15882161 369.70695181 -209.06606713 368.19391002 -209.9917236 366.69232315 C-210.38198727 366.01870743 -210.77225094 365.3450917 -211.17434078 364.65106338 C-211.52101803 364.07477188 -211.86769528 363.49848037 -212.22487789 362.90472549 C-213.35967303 358.29522766 -210.16297386 353.66516173 -207.94387203 349.76043838 C-207.11423947 348.29066543 -207.11423947 348.29066543 -206.26784664 346.7912001 C-205.67109127 345.74593155 -205.0743359 344.70066299 -204.45949703 343.62371963 C-203.18460167 341.3699015 -201.90986655 339.11599271 -200.63527828 336.86200088 C-199.97601514 335.70000927 -199.31667263 334.53806268 -198.65725094 333.37616104 C-195.63205552 328.03334285 -192.64115507 322.67147019 -189.64699703 317.31121963 C-184.65676913 308.39365183 -179.63802528 299.49257377 -174.60378414 290.59979385 C-170.61891458 283.55645999 -166.65950836 276.49915379 -162.70949703 269.43621963 C-157.69890201 260.47687753 -152.66120652 251.5333999 -147.60402828 242.60028213 C-143.61912934 235.55675616 -139.6595971 228.49931246 -135.70949703 221.43621963 C-130.69890201 212.47687753 -125.66120652 203.5333999 -120.60402828 194.60028213 C-116.61912934 187.55675616 -112.6595971 180.49931246 -108.70949703 173.43621963 C-104.22914779 165.42499912 -99.73143611 157.42403903 -95.20949703 149.43621963 C-88.33577307 137.2921187 -81.52047767 125.11559041 -74.70949703 112.93621963 C-67.36818988 99.8085209 -60.01361598 86.68895704 -52.60378414 73.59979385 C-48.61891382 66.55645865 -44.65975495 59.49901682 -40.70949703 52.43621963 C-36.11307189 44.22353165 -31.51496824 36.01181618 -26.89699703 27.81121963 C-26.40650875 26.93659073 -25.91602047 26.06196182 -25.41066891 25.16082901 C-24.44666008 23.4517297 -23.46452216 21.7527022 -22.46269035 20.06549549 C-21.17604959 17.76896958 -20.07250373 15.55999236 -19.00119174 13.16983163 C-14.56955986 3.87426637 -10.84242935 0.03856377 0 0 Z " fill="#000000" transform="translate(799.7094970345497,387.0637803673744)"/>
<path d="M0 0 C2.90494704 2.55459615 4.49862434 5.44548083 6.3359375 8.828125 C6.65137512 9.40485962 6.96681274 9.98159424 7.29180908 10.57580566 C7.97014768 11.81718311 8.64617972 13.0598232 9.32012939 14.30358887 C11.11442154 17.61435532 12.92580892 20.91576656 14.734375 24.21875 C15.27990524 25.21681671 15.27990524 25.21681671 15.8364563 26.23504639 C19.04681949 32.10327783 22.32174382 37.93355328 25.625 43.75 C30.10857011 51.65272543 34.56600779 59.56934176 39 67.5 C44.00967103 76.45798278 49.04620522 85.40024184 54.10327148 94.33154297 C58.11232751 101.4167797 62.09123483 108.51852549 66.0625 115.625 C70.33701181 123.27214861 74.6418026 130.90023427 79 138.5 C85.1486497 149.2240317 91.18506266 160.00973795 97.21337891 170.80175781 C100.16058535 176.07757149 103.11089729 181.35164478 106.0625 186.625 C106.64241699 187.66108398 107.22233398 188.69716797 107.81982422 189.76464844 C112.22757142 197.63377721 116.6623324 205.48737689 121.10571289 213.33642578 C125.68563509 221.43152664 130.22967662 229.54644164 134.76953125 237.6640625 C139.19251493 245.56855219 143.64334503 253.45693029 148.10766602 261.33813477 C150.89799962 266.26793504 153.67596258 271.20416551 156.43359375 276.15234375 C162.21065539 286.51681069 168.04445124 296.83574501 174.0625 307.0625 C179.41099302 316.15680955 184.53224498 325.35317731 189.49462891 334.66381836 C191.79409899 338.97164547 194.10369657 343.24461651 196.66015625 347.40625 C197.05025879 348.04739746 197.44036133 348.68854492 197.84228516 349.34912109 C198.84513582 350.9752325 199.87254858 352.58612959 200.90234375 354.1953125 C202.3611006 357.92266987 201.44764868 359.33029301 200 363 C199.11328637 364.77292995 198.1773634 366.52192011 197.19921875 368.24609375 C196.64105469 369.23609375 196.08289062 370.22609375 195.5078125 371.24609375 C194.90710937 372.29925781 194.30640625 373.35242187 193.6875 374.4375 C193.06230469 375.54351563 192.43710938 376.64953125 191.79296875 377.7890625 C189.86651995 381.19530363 187.93342271 384.59771379 186 388 C184.35907377 390.89970607 182.7200768 393.80049547 181.08129883 396.70141602 C180.0206262 398.57859532 178.95925703 400.45538121 177.8972168 402.33178711 C173.91087691 409.37638865 169.95090272 416.43547195 166 423.5 C160.98940497 432.4593421 155.95170949 441.40281974 150.89453125 450.3359375 C146.90963231 457.37946347 142.95010006 464.43690717 139 471.5 C133.98940497 480.4593421 128.95170949 489.40281974 123.89453125 498.3359375 C119.90963231 505.37946347 115.95010006 512.43690717 112 519.5 C106.98940497 528.4593421 101.95170949 537.40281974 96.89453125 546.3359375 C92.90963231 553.37946347 88.95010006 560.43690717 85 567.5 C79.98940497 576.4593421 74.95170949 585.40281974 69.89453125 594.3359375 C65.90963231 601.37946347 61.95010006 608.43690717 58 615.5 C52.98940497 624.4593421 47.95170949 633.40281974 42.89453125 642.3359375 C38.9096317 649.37946454 34.95029731 656.43701673 31 663.5 C26.4268105 671.67238856 21.84883896 679.84201174 17.25 688 C16.76789062 688.85787109 16.28578125 689.71574219 15.7890625 690.59960938 C14.81474719 692.32550214 13.80109707 694.02976782 12.74980736 695.70988274 C11.32265545 698.39331935 10.58812899 700.34606583 9.82351112 703.2112751 C8.054774 708.6274858 5.82085803 712.77350335 1 716 C-10.16489016 719.27915496 -22.59382683 718.3164796 -34.1142087 718.16368318 C-39.03615429 718.11689999 -43.95722502 718.16826881 -48.87910461 718.20703125 C-58.51331146 718.26716342 -68.14515539 718.23606318 -77.77926065 718.17291628 C-88.99936112 718.10218786 -100.21887023 718.11665506 -111.43912213 718.13325335 C-131.45826311 718.15944742 -151.47626868 718.10029893 -171.49511719 717.99658203 C-190.91906764 717.89595582 -210.34146725 717.86765924 -229.765625 717.91455078 C-250.9218959 717.96553943 -272.07744399 717.97536912 -293.23371446 717.91454613 C-295.48948241 717.90812426 -297.74525043 717.90172847 -300.00101852 717.89535904 C-301.11087939 717.89217351 -302.22074025 717.88898797 -303.36423326 717.88570591 C-311.18488759 717.865873 -319.00521007 717.87473229 -326.82585526 717.89410019 C-336.35568969 717.91661181 -345.88403993 717.89192037 -355.41354682 717.80724226 C-360.27596858 717.7651222 -365.13611527 717.74366533 -369.99864769 717.77846146 C-374.45127135 717.80968868 -378.89932358 717.78081095 -383.35135822 717.70406939 C-384.96079738 717.68678097 -386.57065151 717.69133647 -388.1799279 717.72002064 C-393.0214903 717.79899252 -397.38836725 717.66864271 -402 716 C-405.72869101 712.02669277 -407.79410128 707.99456332 -410 703 C-410.70655483 701.73272346 -411.42606252 700.47235903 -412.1706543 699.22705078 C-412.9891687 697.72634033 -412.9891687 697.72634033 -413.82421875 696.1953125 C-414.45344238 695.04708008 -415.08266602 693.89884766 -415.73095703 692.71582031 C-416.04985901 692.13046509 -416.36876099 691.54510986 -416.69732666 690.9420166 C-418.42745826 687.76714032 -420.16934887 684.5987189 -421.91015625 681.4296875 C-422.2583844 680.79522705 -422.60661255 680.1607666 -422.96539307 679.50708008 C-426.14026375 673.72916233 -429.37160632 667.98406235 -432.625 662.25 C-437.10821783 654.34707362 -441.5660065 646.43066054 -446 638.5 C-450.48023749 630.4887174 -454.97806128 622.48781878 -459.5 614.5 C-466.96932638 601.30362291 -474.36936445 588.068682 -481.77050781 574.83398438 C-488.52231793 562.76200141 -495.291563 550.70048974 -502.10571289 538.66357422 C-506.68563509 530.56847336 -511.22967662 522.45355836 -515.76953125 514.3359375 C-519.66158037 507.38030205 -523.57333772 500.43614796 -527.5 493.5 C-532.61734803 484.46059691 -537.6993318 475.40185704 -542.76953125 466.3359375 C-546.66158037 459.38030205 -550.57333772 452.43614796 -554.5 445.5 C-559.61734803 436.46059691 -564.6993318 427.40185704 -569.76953125 418.3359375 C-573.66158134 411.38030031 -577.57364423 404.4363226 -581.5 397.5 C-583.66772715 393.66726535 -585.8343117 389.83388706 -588 386 C-588.63099609 384.88302734 -589.26199219 383.76605469 -589.91210938 382.61523438 C-591.86170694 379.16219901 -593.80601333 375.70619738 -595.75 372.25 C-596.35908203 371.17169922 -596.96816406 370.09339844 -597.59570312 368.98242188 C-598.15708984 367.98275391 -598.71847656 366.98308594 -599.296875 365.953125 C-600.04469238 364.62522949 -600.04469238 364.62522949 -600.80761719 363.27050781 C-602 361 -602 361 -603 358 C-404.01 357.505 -404.01 357.505 -201 357 C-196.71 349.08 -192.42 341.16 -188 333 C-182.0625 322.5625 -182.0625 322.5625 -179.08984375 317.39453125 C-175.7250061 311.5371412 -172.42152499 305.64604173 -169.125 299.75 C-168.54057129 298.70481201 -167.95614258 297.65962402 -167.35400391 296.58276367 C-166.1646078 294.45473989 -164.97548147 292.32656531 -163.78662109 290.19824219 C-155.85575386 276.00114452 -147.90569362 261.81539433 -139.89428711 247.66357422 C-135.90941754 240.62024036 -131.95001133 233.56293416 -128 226.5 C-122.98940497 217.5406579 -117.95170949 208.59718026 -112.89453125 199.6640625 C-108.90963231 192.62053653 -104.95010006 185.56309283 -101 178.5 C-95.98940497 169.5406579 -90.95170949 160.59718026 -85.89453125 151.6640625 C-81.90963231 144.62053653 -77.95010006 137.56309283 -74 130.5 C-68.98940497 121.5406579 -63.95170949 112.59718026 -58.89453125 103.6640625 C-54.90963231 96.62053653 -50.95010006 89.56309283 -47 82.5 C-41.98971934 73.54122001 -36.95436456 64.59714256 -31.89453125 55.66625977 C-29.09018378 50.71239354 -26.29980323 45.75131537 -23.53125 40.77734375 C-15.89279739 27.05876737 -8.06339104 13.473444 0 0 Z " fill="#000000" transform="translate(1192,925)"/>
</svg>
