<?xml version="1.0" encoding="UTF-8"?>
<svg version="1.1" xmlns="http://www.w3.org/2000/svg" width="512" height="512">
<path d="M0 0 C16.00024712 13.05849765 24.38367041 28.73856385 26.60595703 49.35644531 C27.2847932 66.21421023 21.2504105 82.85779589 9.94970703 95.30957031 C0.95797742 104.69352537 -9.76198016 111.59485151 -22.67529297 113.74707031 C-22.67529297 127.60707031 -22.67529297 141.46707031 -22.67529297 155.74707031 C-15.74529297 155.74707031 -8.81529297 155.74707031 -1.67529297 155.74707031 C4.22176914 159.67844505 6.99347832 161.53488608 8.72705078 168.19042969 C8.97084473 169.10884644 9.21463867 170.02726318 9.46582031 170.97351074 C9.72862793 172.0022229 9.99143555 173.03093506 10.26220703 174.09082031 C10.55595215 175.21073364 10.84969727 176.33064697 11.15234375 177.48449707 C12.02066954 180.80694331 12.87965779 184.13157843 13.73492432 187.45739746 C14.58319089 190.7505644 15.43780318 194.04207781 16.29177952 197.33376789 C19.37784219 209.23234398 22.44089775 221.13681147 25.50087357 233.04211807 C27.72509747 241.69499719 29.95138396 250.34734608 32.17775154 258.99967384 C32.73078046 261.14897786 33.28374261 263.29829906 33.8366375 265.44763756 C37.11770073 278.20153785 40.41008279 290.95234155 43.73292923 303.69542313 C44.28549875 305.81484426 44.83748155 307.93441726 45.38925171 310.05404663 C47.00747725 316.26956672 48.62979021 322.48396659 50.26025391 328.69628906 C50.81452519 330.82383207 51.36857792 332.95143203 51.92236328 335.07910156 C52.17107681 336.019095 52.41979034 336.95908844 52.67604065 337.92756653 C52.89662643 338.77912827 53.11721222 339.63069 53.34448242 340.50805664 C53.63108482 341.60142082 53.63108482 341.60142082 53.92347717 342.71687317 C54.32470703 344.74707031 54.32470703 344.74707031 54.32470703 348.74707031 C55.56559082 348.72612305 56.80647461 348.70517578 58.08496094 348.68359375 C62.70300692 348.61101661 67.3210028 348.56520611 71.93945312 348.52734375 C73.93563321 348.50726862 75.93175478 348.48000242 77.92773438 348.4453125 C80.80239323 348.39661375 83.67627243 348.37406045 86.55126953 348.35644531 C87.88286606 348.3254776 87.88286606 348.3254776 89.24136353 348.29388428 C94.78580674 348.29189109 97.924139 349.04629993 102.32470703 352.74707031 C105.87051739 356.78195796 106.62830882 360.3136844 106.53955078 365.68847656 C106.06277729 370.25683349 104.09907817 373.04824757 100.76220703 376.05957031 C97.4798728 378.33195555 95.84489694 378.87260368 91.90991592 378.88129139 C90.97608401 378.88574923 90.04225209 378.89020708 89.08012223 378.89480001 C88.04726649 378.89461564 87.01441075 378.89443128 85.95025635 378.89424133 C84.85838886 378.89791802 83.76652137 378.90159471 82.64156699 378.90538281 C78.95814286 378.91645538 75.2747469 378.92026953 71.59130859 378.92407227 C68.96038726 378.93033418 66.32946682 378.93698074 63.69854736 378.94398499 C55.78530961 378.96375992 47.87207055 378.97381706 39.95881426 378.98271278 C36.23381061 378.98709413 32.50880838 378.99246135 28.78380585 378.99770164 C16.40345174 379.01471521 4.02309853 379.02920974 -8.35726547 379.03645039 C-11.57102205 379.03836033 -14.78477861 379.04028066 -17.99853516 379.04223633 C-18.79731505 379.04272007 -19.59609494 379.04320381 -20.41908029 379.04370221 C-33.36092996 379.05200381 -46.30268724 379.07734231 -59.24449655 379.10981701 C-72.52675647 379.14287468 -85.80896941 379.16089799 -99.09127069 379.16409463 C-106.55075066 379.16626097 -114.01009591 379.17502755 -121.46953583 379.2005558 C-127.82200713 379.22224524 -134.17431101 379.23032197 -140.52681515 379.22058902 C-143.76814904 379.21603904 -147.00906463 379.22014498 -150.25036621 379.23735046 C-153.76484059 379.25496466 -157.27843372 379.24801394 -160.79290771 379.2348175 C-162.328807 379.25127137 -162.328807 379.25127137 -163.89573455 379.26805764 C-169.81675737 379.21425095 -173.14509241 378.65408073 -177.67529297 374.74707031 C-181.22110333 370.71218266 -181.97889475 367.18045622 -181.89013672 361.80566406 C-181.41336323 357.23730714 -179.44966411 354.44589305 -176.11279297 351.43457031 C-172.951974 349.24631103 -171.37317503 348.62222635 -167.59277344 348.63354492 C-166.33169266 348.63365822 -166.33169266 348.63365822 -165.0451355 348.6337738 C-163.68257126 348.64151573 -163.68257126 348.64151573 -162.29248047 348.64941406 C-161.36307648 348.65082901 -160.43367249 348.65224396 -159.47610474 348.65370178 C-156.50080173 348.65930978 -153.52557332 348.67186364 -150.55029297 348.68457031 C-148.53597114 348.68958428 -146.52164813 348.69414737 -144.50732422 348.69824219 C-139.56328495 348.70928182 -134.61930162 348.72655182 -129.67529297 348.74707031 C-129.56008301 347.63089828 -129.44487305 346.51472626 -129.32617188 345.36473083 C-128.7038838 340.41936469 -127.5167631 335.68205867 -126.26123047 330.86450195 C-125.89185033 329.42288271 -125.89185033 329.42288271 -125.51500797 327.95213985 C-124.6981696 324.7692639 -123.87427286 321.58826053 -123.05029297 318.40722656 C-122.46935449 316.14976308 -121.88883235 313.89219241 -121.30870056 311.63452148 C-119.75729988 305.60263519 -118.19959316 299.5723952 -116.64023972 293.54256058 C-115.35547247 288.57231365 -114.07373298 283.60128799 -112.79194927 278.63027096 C-109.62763182 266.35898886 -106.45643529 254.0894971 -103.28116894 241.82104397 C-101.42819419 234.66062254 -99.57882479 227.49928447 -97.73339844 220.33691406 C-95.72033366 212.52404014 -93.70085012 204.71286166 -91.67407227 196.90353394 C-90.96985152 194.18948727 -90.26848647 191.47472777 -89.56958008 188.75930786 C-88.62162271 185.07743202 -87.66286181 181.39842333 -86.70263672 177.71972656 C-86.43515121 176.67494141 -86.16766571 175.63015625 -85.89207458 174.55371094 C-83.93469011 167.11449454 -82.25652617 161.30330868 -75.67529297 156.74707031 C-68.81153954 153.3151936 -60.34920259 155.74707031 -52.67529297 155.74707031 C-52.67529297 141.88707031 -52.67529297 128.02707031 -52.67529297 113.74707031 C-55.64529297 113.08707031 -58.61529297 112.42707031 -61.67529297 111.74707031 C-76.9782957 106.0662434 -88.97538888 93.48034548 -96.06054688 79.06689453 C-102.84943586 64.17457566 -103.55389923 47.33380386 -98.67529297 31.74707031 C-94.85864087 21.61936239 -89.5248345 13.24805316 -81.67529297 5.74707031 C-81.06298828 5.11542969 -80.45068359 4.48378906 -79.81982422 3.83300781 C-59.17817692 -16.14845887 -22.61755313 -16.915372 0 0 Z " fill="#233361" transform="translate(293.67529296875,133.2529296875)"/>
<path d="M0 0 C16.00024712 13.05849765 24.38367041 28.73856385 26.60595703 49.35644531 C27.2847932 66.21421023 21.2504105 82.85779589 9.94970703 95.30957031 C0.95797742 104.69352537 -9.76198016 111.59485151 -22.67529297 113.74707031 C-22.67529297 127.60707031 -22.67529297 141.46707031 -22.67529297 155.74707031 C-32.57529297 155.74707031 -42.47529297 155.74707031 -52.67529297 155.74707031 C-52.67529297 141.88707031 -52.67529297 128.02707031 -52.67529297 113.74707031 C-55.64529297 113.08707031 -58.61529297 112.42707031 -61.67529297 111.74707031 C-76.9782957 106.0662434 -88.97538888 93.48034548 -96.06054688 79.06689453 C-102.84943586 64.17457566 -103.55389923 47.33380386 -98.67529297 31.74707031 C-94.85864087 21.61936239 -89.5248345 13.24805316 -81.67529297 5.74707031 C-81.06298828 5.11542969 -80.45068359 4.48378906 -79.81982422 3.83300781 C-59.17817692 -16.14845887 -22.61755313 -16.915372 0 0 Z " fill="#CCE3F9" transform="translate(293.67529296875,133.2529296875)"/>
<path d="M0 0 C0 63.69 0 127.38 0 193 C-30.36 193 -60.72 193 -92 193 C-90.87498995 183.99991964 -90.87498995 183.99991964 -89.93115234 180.33729553 C-89.71878402 179.50322206 -89.50641569 178.66914858 -89.28761196 177.80980015 C-89.05605939 176.92131854 -88.82450682 176.03283693 -88.5859375 175.11743164 C-88.33968408 174.15635215 -88.09343065 173.19527266 -87.839715 172.20506954 C-87.02287663 169.02219359 -86.19897989 165.84119022 -85.375 162.66015625 C-84.79406152 160.40269276 -84.21353938 158.1451221 -83.63340759 155.88745117 C-82.08200691 149.85556488 -80.52430019 143.82532489 -78.96494675 137.79549026 C-77.68017951 132.82524334 -76.39844001 127.85421768 -75.1166563 122.88320065 C-71.95233886 110.61191855 -68.78114233 98.34242679 -65.60587597 86.07397366 C-63.75290122 78.91355222 -61.90353183 71.75221416 -60.05810547 64.58984375 C-58.04504069 56.77696982 -56.02555715 48.96579134 -53.9987793 41.15646362 C-53.29455855 38.44241696 -52.5931935 35.72765746 -51.89428711 33.01223755 C-50.94632974 29.33036171 -49.98756884 25.65135302 -49.02734375 21.97265625 C-48.75985825 20.92787109 -48.49237274 19.88308594 -48.21678162 18.80664062 C-46.25939714 11.36742423 -44.5812332 5.55623837 -38 1 C-26.66666667 -4.66666667 -12.67105187 0 0 0 Z " fill="#464677" transform="translate(256,289)"/>
<path d="M0 0 C4.004793 2.0023965 6.6587028 4.17998877 9 8 C10.6252163 12.8756489 10.75126306 17.08889223 8.88671875 21.83203125 C6.56188466 25.73563467 3.74029356 28.65725311 0.5625 31.875 C-15.42106273 48.56557984 -28.29937639 68.05582715 -38 89 C-38.44786865 89.94794434 -38.44786865 89.94794434 -38.90478516 90.91503906 C-52.83472167 120.53608118 -59.44828771 151.97822137 -59.3125 184.625 C-59.31034485 185.55641815 -59.3081897 186.4878363 -59.30596924 187.44747925 C-59.25614645 200.85427227 -58.89633615 213.86323114 -56 227 C-55.69400879 228.46397217 -55.69400879 228.46397217 -55.38183594 229.95751953 C-46.01733134 274.22422796 -24.76339394 312.05818796 6.22265625 344.78125 C9.53333919 348.91414651 10.40947611 352.71910537 10.25 358.01171875 C9.68042138 362.54164871 7.76184686 365.31247966 4.4375 368.3125 C-0.32537433 371.60987454 -4.31799586 371.44927475 -10 371 C-20.20251372 367.87678152 -27.6514194 356.00109417 -34 348 C-34.86204125 346.95080288 -35.72536164 345.90265565 -36.58984375 344.85546875 C-63.3310361 312.13250271 -79.9435945 272.2432198 -88 231 C-88.16661133 230.17806152 -88.33322266 229.35612305 -88.50488281 228.50927734 C-93.88931778 200.71199249 -93.68539325 167.72262611 -88 140 C-87.79600586 138.97535645 -87.59201172 137.95071289 -87.38183594 136.89501953 C-81.01635884 105.60967249 -69.99857511 76.10783032 -53 49 C-52.30132812 47.88496094 -51.60265625 46.76992188 -50.8828125 45.62109375 C-19.73875064 -2.34576457 -19.73875064 -2.34576457 0 0 Z " fill="#00F3E0" transform="translate(91,0)"/>
<path d="M0 0 C9.88004583 4.54482108 17.42270298 15.65317637 24 24 C24.79277344 24.98742187 25.58554687 25.97484375 26.40234375 26.9921875 C52.65990454 60.26006072 68.67864692 98.63025543 77 140 C77.18224121 140.8859082 77.36448242 141.77181641 77.55224609 142.68457031 C82.96872748 170.39755269 82.62365168 203.36056702 77 231 C76.80664062 231.99805664 76.61328125 232.99611328 76.4140625 234.02441406 C69.5651197 268.68133293 56.24147549 301.95303683 36 331 C35.59974609 331.57443848 35.19949219 332.14887695 34.78710938 332.74072266 C29.0279006 340.8914257 22.55647849 348.48704173 16 356 C15.5167627 356.55848633 15.03352539 357.11697266 14.53564453 357.69238281 C13.09756452 359.34696341 11.64536869 360.98784811 10.1875 362.625 C9.33542969 363.58664062 8.48335938 364.54828125 7.60546875 365.5390625 C3.53268903 369.38591591 -0.35940285 371.42846058 -6 371.4375 C-10.70599291 371.2888897 -13.4002915 370.16071965 -17 367 C-20.75344737 362.72883576 -21.37233974 358.78919321 -21.265625 353.2578125 C-20.5257681 346.96902884 -14.61432741 342.28364875 -10.5390625 337.796875 C-9.28222656 336.41242188 -9.28222656 336.41242188 -8 335 C-6.74316406 333.61554688 -6.74316406 333.61554688 -5.4609375 332.203125 C26.57880708 296.10309924 47.77443886 245.34397479 48.23828125 196.8125 C48.2480751 195.96049515 48.25786896 195.1084903 48.26795959 194.23066711 C48.43944516 175.44291311 48.25470536 157.39496284 44 139 C43.78569336 138.03690918 43.57138672 137.07381836 43.35058594 136.08154297 C38.9800484 116.7958304 32.3696347 98.34393998 23.02099609 80.90625 C22.33851722 79.63202832 21.66437963 78.35330488 20.99853516 77.0703125 C12.90212807 61.48013085 2.5711309 47.38667929 -9.515625 34.65625 C-21.36233416 21.98995719 -21.36233416 21.98995719 -21.21484375 13.05859375 C-20.73807026 8.49023683 -18.77437114 5.69882274 -15.4375 2.6875 C-10.46658583 -0.75390212 -5.92969583 -0.57438649 0 0 Z " fill="#00C1D0" transform="translate(432,0)"/>
<path d="M0 0 C32.15974413 26.79101434 50.25914392 71.6252942 56 112 C56.09571289 112.6408252 56.19142578 113.28165039 56.29003906 113.94189453 C57.28611509 121.5088592 57.24367232 129.13072053 57.25 136.75 C57.25067474 137.48165375 57.25134949 138.2133075 57.25204468 138.96713257 C57.23419786 151.19187095 56.50916927 163.00249895 54 175 C53.82839355 175.82709473 53.65678711 176.65418945 53.47998047 177.50634766 C49.49894373 196.04538469 42.95353451 213.31546664 34 230 C33.39671875 231.15757812 32.7934375 232.31515625 32.171875 233.5078125 C25.271633 246.23556981 16.30612741 257.58438804 6.625 268.3125 C5.93035645 269.09379272 5.93035645 269.09379272 5.22167969 269.89086914 C1.02090326 274.40528158 -3.68184193 278.04455737 -10 278.5 C-14.36406078 278.24627554 -17.63824233 276.76449108 -21 274 C-24.17989809 270.15064968 -25.90151308 267.02283268 -26 262 C-25.26087976 254.7270568 -20.82305504 250.3666663 -15.96459961 245.35009766 C13.99285587 214.05951535 25.81903097 171.68123477 25.25 129.34375 C25.02003546 120.34753701 24.01213182 111.76386314 22 103 C21.83902832 102.27522461 21.67805664 101.55044922 21.51220703 100.80371094 C15.44297336 74.32296229 2.37674969 48.91989109 -16.46630859 29.28735352 C-25.44503144 19.90484145 -25.44503144 19.90484145 -26 13 C-25.67973821 7.00337403 -23.22296689 3.12475836 -19 -1 C-12.50473585 -4.86204895 -6.17702061 -3.5569476 0 0 Z " fill="#00C1D0" transform="translate(391,48)"/>
<path d="M0 0 C4.90446453 3.23248798 7.43535216 6.93167725 8.6171875 12.63671875 C8.90888112 17.41534665 7.46435924 21.78246554 4.37109375 25.4453125 C3.22684526 26.54268816 2.06774629 27.62467956 0.8984375 28.6953125 C-12.15673163 41.56058826 -21.67154404 58.28998968 -29.25 74.8125 C-29.52972656 75.42174316 -29.80945313 76.03098633 -30.09765625 76.65869141 C-33.49860917 84.22252571 -35.95865636 91.85570744 -38 99.875 C-38.19875732 100.65327148 -38.39751465 101.43154297 -38.60229492 102.23339844 C-41.54303183 114.44004064 -42.61573105 126.52502272 -42.5625 139.0625 C-42.56100952 139.73748535 -42.55951904 140.4124707 -42.5579834 141.10791016 C-42.51507712 151.95615337 -41.74585632 162.25063591 -39.25 172.8125 C-38.95996094 174.08351562 -38.66992188 175.35453125 -38.37109375 176.6640625 C-31.61067315 203.98860768 -18.31984886 229.20206008 1.1875 249.5625 C5.22595455 253.94438218 8.17097737 257.7550325 8.75 263.8125 C8.4415475 269.80529147 5.9671475 273.6934257 1.75 277.8125 C-2.28979445 280.21453994 -6.6508853 280.49972404 -11.25 279.8125 C-22.65319375 274.92541697 -30.00397123 263.43291754 -37.25 253.8125 C-37.8790625 252.97847656 -38.508125 252.14445313 -39.15625 251.28515625 C-62.55669276 218.99916801 -74.46691749 179.85652911 -74.5 140.125 C-74.50067474 139.39528992 -74.50134949 138.66557983 -74.50204468 137.91375732 C-74.45474416 105.57346467 -66.61599223 75.28259854 -51.25 46.8125 C-50.92386719 46.20035645 -50.59773438 45.58821289 -50.26171875 44.95751953 C-42.19958192 29.92131315 -29.0480412 8.36006276 -13.8125 -0.625 C-8.76870008 -1.73217559 -4.80073618 -1.75411514 0 0 Z " fill="#00F3E0" transform="translate(138.25,46.1875)"/>
<path d="M0 0 C0.93383192 -0.00445784 1.86766384 -0.00891569 2.82979369 -0.01350862 C4.3790773 -0.01323207 4.3790773 -0.01323207 5.95965958 -0.01294994 C7.05152706 -0.01662663 8.14339455 -0.02030332 9.26834893 -0.02409142 C12.95177306 -0.03516399 16.63516902 -0.03897814 20.31860733 -0.04278088 C22.94952866 -0.04904279 25.5804491 -0.05568935 28.21136856 -0.0626936 C36.12460631 -0.08246853 44.03784537 -0.09252567 51.95110166 -0.10142139 C55.67610532 -0.10580274 59.40110755 -0.11116996 63.12611008 -0.11641026 C75.50646418 -0.13342383 87.88681739 -0.14791835 100.2671814 -0.155159 C103.48093797 -0.15706894 106.69469453 -0.15898927 109.90845108 -0.16094494 C110.70723097 -0.16142868 111.50601087 -0.16191242 112.32899621 -0.16241082 C125.27084588 -0.17071242 138.21260316 -0.19605092 151.15441248 -0.22852562 C164.43667239 -0.26158329 177.71888533 -0.2796066 191.00118661 -0.28280324 C198.46066658 -0.28496958 205.92001183 -0.29373616 213.37945175 -0.31926441 C219.73192306 -0.34095385 226.08422694 -0.34903058 232.43673107 -0.33929763 C235.67806497 -0.33474765 238.91898055 -0.33885359 242.16028214 -0.35605907 C245.67475652 -0.37367327 249.18834964 -0.36672255 252.70282364 -0.35352612 C253.72675649 -0.36449536 254.75068935 -0.37546461 255.80565047 -0.38676625 C261.72667329 -0.33295957 265.05500834 0.22721066 269.58520889 4.13422108 C273.13101925 8.16910872 273.88881068 11.70083517 273.80005264 17.07562733 C273.32327915 21.64398425 271.35958004 24.43539834 268.02270889 27.44672108 C264.74037466 29.71910631 263.1053988 30.25975444 259.17041779 30.26844215 C258.23658587 30.2729 257.30275395 30.27735784 256.34062409 30.28195077 C255.30776835 30.28176641 254.27491261 30.28158205 253.21075821 30.2813921 C252.11889072 30.28506879 251.02702323 30.28874547 249.90206885 30.29253358 C246.21864472 30.30360614 242.53524877 30.30742029 238.85181046 30.31122303 C236.22088912 30.31748495 233.58996868 30.3241315 230.95904922 30.33113575 C223.04581147 30.35091069 215.13257242 30.36096783 207.21931612 30.36986354 C203.49431247 30.37424489 199.76931024 30.37961211 196.04430771 30.38485241 C183.6639536 30.40186598 171.28360039 30.4163605 158.90323639 30.42360115 C155.68947982 30.4255111 152.47572325 30.42743142 149.26196671 30.42938709 C148.06379687 30.4301127 148.06379687 30.4301127 146.84142157 30.43085297 C133.8995719 30.43915457 120.95781463 30.46449307 108.01600531 30.49696777 C94.73374539 30.53002545 81.45153245 30.54804875 68.16923118 30.55124539 C60.70975121 30.55341173 53.25040595 30.56217831 45.79096603 30.58770657 C39.43849473 30.60939601 33.08619085 30.61747274 26.73368672 30.60773978 C23.49235282 30.60318981 20.25143724 30.60729574 17.01013565 30.62450123 C13.49566127 30.64211542 9.98206814 30.63516471 6.46759415 30.62196827 C5.44366129 30.63293752 4.41972844 30.64390676 3.36476731 30.65520841 C-2.5562555 30.60140172 -5.88459055 30.04123149 -10.41479111 26.13422108 C-13.96060146 22.09933343 -14.71839289 18.56760698 -14.62963486 13.19281483 C-14.15286136 8.6244579 -12.18916225 5.83304382 -8.85229111 2.82172108 C-5.56995688 0.54933584 -3.93498101 0.00868771 0 0 Z " fill="#001F49" transform="translate(126.41479110717773,481.86577892303467)"/>
<path d="M0 0 C0 41.58 0 83.16 0 126 C-19.00897497 126 -32.65633636 121.17020376 -46.26953125 107.859375 C-58.17539172 95.39143528 -63.72003717 80.02348674 -64.375 62.9375 C-63.59754922 45.0262301 -56.9715042 29.39550491 -44 17 C-43.38769531 16.36835938 -42.77539062 15.73671875 -42.14453125 15.0859375 C-30.66295259 3.97157351 -15.53530077 0 0 0 Z " fill="#EAF4FB" transform="translate(256,122)"/>
<path d="M0 0 C23.03749279 22.08371124 36.71091729 54.19482414 37.71875 85.96875 C38.28763362 122.88820994 26.01678966 153.37753952 1.7265625 181 C-2.21949239 184.86239295 -5.36401311 186.59367901 -10.921875 186.6015625 C-15.86992856 186.46171173 -18.71956908 185.55238782 -22.484375 182.1640625 C-26.02878104 178.13077286 -26.59988052 174.72064911 -26.8125 169.39453125 C-26.03157921 164.08612923 -23.01359999 160.38377539 -19.359375 156.6640625 C-1.09301014 136.82352311 6.52365607 111.08881127 5.64746094 84.48925781 C4.28300371 60.42427517 -7.49436135 39.8026564 -23.046875 22.0390625 C-26.35424084 18.13806689 -26.78815141 15.28775435 -26.6953125 10.21875 C-26.21661517 5.5558834 -23.99481227 2.40543632 -20.609375 -0.6484375 C-14.10158384 -5.20389131 -6.37264391 -4.70934377 0 0 Z " fill="#00C1D0" transform="translate(346.484375,93.8359375)"/>
<path d="M0 0 C3.46378711 2.80711081 6.04065556 5.29259051 7 9.76953125 C7.46361352 15.61106164 6.99370503 18.59978512 4 23.76953125 C2.49297815 25.50675537 0.92598743 27.19321435 -0.6875 28.83203125 C-18.17019583 47.61446102 -25.80120412 72.67340961 -25.24609375 97.9609375 C-24.32049014 121.06418769 -14.62806158 141.92595436 0.58203125 159.02734375 C5.17806016 164.23964148 7.33372781 167.51184736 7.21484375 174.7109375 C6.73807026 179.27929442 4.77437114 182.07070851 1.4375 185.08203125 C-2.05763036 187.50173688 -4.02019264 187.97224117 -8.25 188.08203125 C-9.18328125 188.11941406 -10.1165625 188.15679687 -11.078125 188.1953125 C-20.08461555 186.88286936 -27.03452857 177.0619939 -32.24902344 170.10253906 C-52.91749395 140.886314 -61.14238162 105.65580574 -55.54638672 70.29833984 C-50.90136601 44.56623927 -38.17874179 17.98224111 -18 0.76953125 C-12.53432603 -2.8742514 -5.75131293 -3.53840541 0 0 Z " fill="#00F3E0" transform="translate(185,92.23046875)"/>
<path d="M0 0 C1.13024597 -0.00137466 2.26049194 -0.00274933 3.42498779 -0.00416565 C5.29370041 0.00122726 5.29370041 0.00122726 7.20016479 0.00672913 C8.5074353 0.0065831 9.81470581 0.00643707 11.16159058 0.00628662 C14.75228038 0.00599901 18.34293696 0.01188985 21.93361902 0.01886058 C25.68391407 0.02510018 29.43420984 0.0256984 33.18450928 0.02688599 C40.28889308 0.02999751 47.39326154 0.03820849 54.49763858 0.04823548 C62.58459065 0.05940216 70.67154344 0.06490847 78.75850129 0.06993091 C95.39645552 0.08039124 112.03438861 0.09873451 128.67233276 0.12025452 C128.67233276 10.02025452 128.67233276 19.92025452 128.67233276 30.12025452 C111.30451632 30.210578 93.93690057 30.28424986 76.56891441 30.3275032 C68.50450604 30.34812103 60.44025404 30.37622659 52.37594604 30.42201233 C45.34638953 30.46190413 38.31694629 30.487693 31.28727973 30.4966085 C27.56569942 30.50181934 23.84444313 30.51405001 20.12296677 30.54317474 C15.96658761 30.57543869 11.81077035 30.57621243 7.65426636 30.57435608 C6.42283905 30.58873718 5.19141174 30.60311829 3.92266846 30.61793518 C-2.44797948 30.58709197 -6.52886333 30.49922909 -11.32766724 26.12025452 C-14.87347759 22.08536687 -15.63126902 18.55364042 -15.54251099 13.17884827 C-15.06573749 8.61049134 -13.10203838 5.81907725 -9.76516724 2.80775452 C-6.16411089 0.31471551 -4.35126476 -0.0040666 0 0 Z " fill="#223360" transform="translate(127.32766723632813,481.87974548339844)"/>
<path d="M0 0 C2.97 0.33 5.94 0.66 9 1 C11.37383277 1.08531746 13.74964069 1.13041084 16.125 1.125 C17.26195312 1.12757813 18.39890625 1.13015625 19.5703125 1.1328125 C23.0647024 0.99749444 26.53813774 0.49455175 30 0 C30 13.86 30 27.72 30 42 C20.1 42 10.2 42 0 42 C0 28.14 0 14.28 0 0 Z " fill="#A9CFF7" transform="translate(241,247)"/>
</svg>
