<?xml version="1.0" encoding="UTF-8"?>
<svg version="1.1" xmlns="http://www.w3.org/2000/svg" width="1280" height="1280">
<path d="M0 0 C7.93567319 5.79309302 12.54159023 16.4082349 17.35308838 24.74890137 C18.45910135 26.66237165 19.57367652 28.57060543 20.69091797 30.47753906 C23.99810361 36.12473728 27.28346475 41.78042438 30.4921875 47.484375 C31.43183446 49.11484691 32.37189926 50.74507813 33.3125 52.375 C33.71243164 53.11234375 34.11236328 53.8496875 34.52441406 54.609375 C36.59654179 58.1487558 37.64323796 59.48132456 41.6796875 60.546875 C42.83726562 60.57265625 43.99484375 60.5984375 45.1875 60.625 C46.05375 60.7384375 46.92 60.851875 47.8125 60.96875 C51.37619008 61.20320329 54.08258631 61.35127593 57.13671875 59.34375 C58.97038535 57.5306864 60.58070361 55.64122047 62.1875 53.625 C63.24592884 52.41309898 64.30856729 51.20486388 65.375 50 C66.23544922 49.00226562 66.23544922 49.00226562 67.11328125 47.984375 C69.71379248 45.02635469 72.38485831 42.13812048 75.0625 39.25 C78.71079297 35.31217796 82.34563798 31.36457684 85.9375 27.375 C86.65035156 26.58480469 87.36320313 25.79460938 88.09765625 24.98046875 C89.52144078 23.37571722 90.92444258 21.75234055 92.30859375 20.11328125 C97.48669702 14.03463828 101.72041185 10.30231559 110.04296875 9.5703125 C114.76097298 9.6906259 119.09807643 10.7332246 122.65087891 13.94995117 C127.11645795 18.71262678 129.18846642 23.83870292 131.3125 29.9375 C131.67722412 30.94772217 132.04194824 31.95794434 132.41772461 32.9987793 C133.45284281 35.87839117 134.47278527 38.76294738 135.48858643 41.64941406 C136.51266157 44.54411882 137.55384639 47.43260458 138.59387207 50.3216095 C139.98570811 54.19126879 141.36792095 58.06434772 142.75 61.9375 C143.0216095 62.6960025 143.29321899 63.454505 143.57305908 64.23599243 C144.34675691 66.40165949 145.11382042 68.56955908 145.87890625 70.73828125 C146.11282578 71.39038574 146.3467453 72.04249023 146.5877533 72.71435547 C147.5645778 75.50282448 148.1875 77.64353444 148.1875 80.625 C150.08295392 81.10566535 151.97888039 81.58446743 153.875 82.0625 C154.93074219 82.32933594 155.98648438 82.59617187 157.07421875 82.87109375 C158.10160156 83.11988281 159.12898437 83.36867188 160.1875 83.625 C160.99469482 83.85654785 161.80188965 84.0880957 162.63354492 84.32666016 C165.83124249 84.70019867 166.65493382 84.0960306 169.1640625 82.15234375 C169.90760986 81.5893457 170.65115723 81.02634766 171.41723633 80.44628906 C172.20767334 79.82463867 172.99811035 79.20298828 173.8125 78.5625 C175.51664202 77.26394873 177.22107751 75.96578253 178.92578125 74.66796875 C179.7967041 73.99685059 180.66762695 73.32573242 181.56494141 72.63427734 C186.45196339 68.89007785 191.42440395 65.26152614 196.39086914 61.6237793 C199.99992067 58.9787457 203.59445245 56.32268279 207.140625 53.59375 C219.31881009 44.33258247 219.31881009 44.33258247 227.1875 44.625 C233.24647945 45.6154101 237.27619875 47.79339257 241.1875 52.625 C243.68591152 56.29168634 244.70892498 59.24216878 245.35424805 63.62109375 C245.53420822 64.80582275 245.7141684 65.99055176 245.89958191 67.21118164 C246.17165215 69.11758423 246.17165215 69.11758423 246.44921875 71.0625 C246.64585536 72.38871798 246.84336382 73.71480695 247.04170227 75.04077148 C247.45419506 77.81367793 247.85948485 80.58750396 248.2590332 83.36230469 C248.77014399 86.91117631 249.29397855 90.45801305 249.82257366 94.00431824 C250.32775589 97.39803317 250.82606169 100.79274816 251.32421875 104.1875 C251.5116716 105.45843506 251.69912445 106.72937012 251.89225769 108.03881836 C252.06276138 109.22354736 252.23326508 110.40827637 252.40893555 111.62890625 C252.55977097 112.66861572 252.71060638 113.7083252 252.86601257 114.77954102 C253.16498368 117.42570992 253.24839979 119.96519348 253.1875 122.625 C254.033125 122.8725 254.87875 123.12 255.75 123.375 C258.48661284 124.37013194 260.30153722 125.27676895 262.6875 126.8125 C266.81002192 128.94737742 267.79686224 128.73365671 272.1875 127.625 C274.69732692 126.59299362 277.10678608 125.52470102 279.54296875 124.34375 C280.23828201 124.01395645 280.93359528 123.6841629 281.64997864 123.34437561 C283.13078731 122.6408 284.60997567 121.93380551 286.08764648 121.22366333 C288.39007394 120.11775967 290.69724503 119.02236608 293.00585938 117.92944336 C299.46218054 114.86794541 305.90405379 111.78220296 312.30078125 108.59765625 C313.14938721 108.18 313.99799316 107.76234375 314.87231445 107.33203125 C316.34791333 106.60255666 317.8173287 105.86033919 319.27807617 105.1015625 C325.60803971 101.97929251 332.54927907 100.62018062 339.4375 102.625 C344.7166064 104.96533259 348.1637511 109.03415101 350.26342773 114.34790039 C351.24228199 117.81927705 351.34974864 120.47710329 351.19921875 124.0703125 C351.15273193 125.30249512 351.10624512 126.53467773 351.05834961 127.80419922 C350.99784424 129.10631348 350.93733887 130.40842773 350.875 131.75 C350.82011855 133.10559432 350.76617065 134.46122675 350.71313477 135.81689453 C350.44215478 142.56852207 350.11417552 149.31734605 349.75219727 156.06469727 C349.62800577 158.44245195 349.52217664 160.82051682 349.41796875 163.19921875 C349.2842516 166.17556687 349.04446582 169.11876519 348.73828125 172.08203125 C348.2763171 177.61744142 347.99948891 181.94397516 351.32421875 186.6484375 C354.27777261 189.32599679 356.47465185 191.14604146 360.1875 192.625 C367.40738628 192.19760339 374.14827117 190.51646599 381.125 188.68359375 C383.42441597 188.09415444 385.72389714 187.50496944 388.0234375 186.91601562 C391.61204536 185.98937633 395.19970692 185.05931742 398.78613281 184.12426758 C402.27175164 183.21801623 405.76058553 182.3251005 409.25 181.43359375 C410.31275146 181.15237167 411.37550293 180.8711496 412.47045898 180.58140564 C420.89453759 178.44036395 428.58890596 176.97502345 436.46484375 181.421875 C440.48956337 184.23279029 442.90911435 187.93758595 444.1875 192.625 C444.67031024 200.38819657 443.08929993 207.03322637 441.08984375 214.5078125 C440.44720625 216.9986826 439.80462996 219.48956849 439.16210938 221.98046875 C438.31358391 225.22416788 437.46297924 228.46728507 436.60870361 231.70947266 C435.44213448 236.13859333 434.29496315 240.57243727 433.15234375 245.0078125 C432.68525246 246.74866623 432.68525246 246.74866623 432.20872498 248.52468872 C430.42569826 255.46676917 429.24612375 260.61832986 432.47265625 267.27734375 C435.37596045 271.01016343 437.61185029 273.41536369 442.43359375 274.05688477 C443.67238281 274.01877686 444.91117188 273.98066895 446.1875 273.94140625 C446.87731461 273.92493042 447.56712921 273.90845459 448.27784729 273.89147949 C450.58266459 273.82766157 452.8841765 273.72931086 455.1875 273.625 C456.40903275 273.5755574 456.40903275 273.5755574 457.65524292 273.52511597 C463.81451765 273.27338218 469.96953875 272.95577765 476.125 272.625 C478.84932573 272.4806071 481.57370123 272.33747447 484.29823303 272.19702148 C485.97466038 272.11042167 487.65097375 272.02157082 489.32713318 271.92993164 C508.95352787 270.90736594 508.95352787 270.90736594 514.94921875 276.171875 C518.64545119 280.21714634 521.08389877 284.01593377 521.24560547 289.64916992 C520.83901847 297.03034716 518.14695857 302.76887527 514.81204224 309.29049683 C513.85631879 311.16157331 512.92154067 313.04184434 511.99194336 314.92602539 C510.70587152 317.53159032 509.41446915 320.13437462 508.11816406 322.73486328 C505.09518712 328.81291185 502.15206173 334.92573435 499.25 341.0625 C498.7243042 342.13886719 498.1986084 343.21523438 497.65698242 344.32421875 C497.18365479 345.3296875 496.71032715 346.33515625 496.22265625 347.37109375 C495.8037915 348.24435303 495.38492676 349.1176123 494.95336914 350.01733398 C493.75262465 354.10568335 494.56601816 357.32905754 496.37890625 361.109375 C496.83136719 361.85703125 497.28382812 362.6046875 497.75 363.375 C500.1875 367.4351983 500.1875 367.4351983 500.1875 369.625 C500.90931961 369.67819901 501.63113922 369.73139801 502.37483215 369.78620911 C513.40176658 370.64557532 524.30164504 372.19277686 535.24243164 373.78881836 C537.66816009 374.13851844 540.09528518 374.47866128 542.52368164 374.80932617 C546.06490917 375.29214482 549.60067598 375.80493996 553.13671875 376.32421875 C554.21193283 376.46510422 555.28714691 376.60598969 556.39494324 376.75114441 C563.48690017 377.8373724 568.69686403 379.92691082 574.1875 384.625 C577.25686592 388.84035189 578.53364993 393.85504926 578.375 399.0625 C576.44605402 409.6257756 567.15498608 418.71327325 560.74609375 426.9921875 C556.98856965 431.85929498 553.32974561 436.79627507 549.6875 441.75 C549.11249756 442.53117187 548.53749512 443.31234375 547.94506836 444.1171875 C546.86015182 445.59452066 545.78068895 447.0758791 544.70751953 448.56176758 C543.71371774 449.91072661 542.68929422 451.23778529 541.63232422 452.5378418 C538.79559187 456.10145091 538.79559187 456.10145091 538.3203125 460.50390625 C538.81144531 461.83228516 538.81144531 461.83228516 539.3125 463.1875 C539.63089844 464.12335938 539.94929688 465.05921875 540.27734375 466.0234375 C540.57769531 466.88195312 540.87804688 467.74046875 541.1875 468.625 C541.55912116 470.61824078 541.91596975 472.61567613 542.1875 474.625 C543.43313721 474.87266113 544.67877441 475.12032227 545.9621582 475.37548828 C551.74128466 476.66380838 557.22959617 478.61097711 562.79296875 480.6171875 C563.87580643 481.00439972 564.9586441 481.39161194 566.07429504 481.79055786 C568.35025387 482.60644692 570.62519849 483.42517017 572.89916992 484.24658203 C576.37131936 485.49867273 579.84846273 486.73610472 583.32617188 487.97265625 C585.54458872 488.76994938 587.76269855 489.56809742 589.98046875 490.3671875 C591.53220039 490.91740067 591.53220039 490.91740067 593.11528015 491.47872925 C601.67540643 494.5944145 608.38220888 497.74724718 612.5 506.375 C613.87285027 512.86483764 612.92326349 518.067842 609.49853516 523.78930664 C607.07794482 527.17858387 604.03026079 529.85996925 600.9375 532.625 C600.26219238 533.24165527 599.58688477 533.85831055 598.89111328 534.49365234 C595.06130477 537.97974824 591.19048647 541.41808122 587.265625 544.796875 C583.82628979 547.8224556 580.47119444 550.94091888 577.13354492 554.078125 C574.52899053 556.5169177 571.92999793 558.82889691 569.12890625 561.046875 C564.18751507 564.79001436 564.18751507 564.79001436 561.5390625 570.15625 C561.49978171 572.76449423 561.73596387 575.05713368 562.1875 577.625 C562.25432983 579.30203003 562.25432983 579.30203003 562.32250977 581.01293945 C562.85641289 584.79562139 562.85641289 584.79562139 565.87353516 586.94165039 C567.06043308 587.64309736 568.26284665 588.31870795 569.4765625 588.97265625 C570.12375748 589.3467865 570.77095245 589.72091675 571.4377594 590.10638428 C573.55096728 591.32201603 575.68120666 592.50391798 577.8125 593.6875 C579.27149687 594.52226529 580.72892947 595.35977032 582.18481445 596.19995117 C585.11607407 597.88892114 588.05293762 599.56731591 590.99560547 601.23632812 C596.83742427 604.55604679 602.61594596 607.97607747 608.375 611.4375 C609.76936279 612.25263062 609.76936279 612.25263062 611.19189453 613.08422852 C617.05735582 616.60273453 621.93526056 619.86828167 624.1875 626.625 C625.29446918 639.0375725 625.29446918 639.0375725 621.71606445 643.93945312 C615.4656944 650.83173149 606.04231967 655.18788646 598.06359863 659.79058838 C596.15012835 660.89660135 594.24189457 662.01117652 592.33496094 663.12841797 C586.68776272 666.43560361 581.03207562 669.72096475 575.328125 672.9296875 C573.69765309 673.86933446 572.06742187 674.80939926 570.4375 675.75 C569.70015625 676.14993164 568.9628125 676.54986328 568.203125 676.96191406 C564.6637442 679.03404179 563.33117544 680.08073796 562.265625 684.1171875 C562.23984375 685.27476562 562.2140625 686.43234375 562.1875 687.625 C562.0740625 688.49125 561.960625 689.3575 561.84375 690.25 C561.60929671 693.81369008 561.46122407 696.52008631 563.46875 699.57421875 C565.2818136 701.40788535 567.17127953 703.01820361 569.1875 704.625 C570.39940102 705.68342884 571.60763612 706.74606729 572.8125 707.8125 C573.47765625 708.38613281 574.1428125 708.95976563 574.828125 709.55078125 C577.78614531 712.15129248 580.67437952 714.82235831 583.5625 717.5 C587.50032204 721.14829297 591.44792316 724.78313798 595.4375 728.375 C596.22769531 729.08785156 597.01789063 729.80070313 597.83203125 730.53515625 C599.43678278 731.95894078 601.06015945 733.36194258 602.69921875 734.74609375 C608.41647808 739.6163517 611.79281977 743.4207864 613.0625 751 C613.43626779 755.83460513 612.62767875 759.4439145 610.1875 763.625 C605.37764426 769.0547047 599.58889297 771.41174642 592.875 773.75 C591.86477783 774.11472412 590.85455566 774.47944824 589.8137207 774.85522461 C586.93410883 775.89034281 584.04955262 776.91028527 581.16308594 777.92608643 C578.26838118 778.95016157 575.37989542 779.99134639 572.4908905 781.03137207 C568.62123121 782.42320811 564.74815228 783.80542095 560.875 785.1875 C560.1164975 785.4591095 559.357995 785.73071899 558.57650757 786.01055908 C556.41084051 786.78425691 554.24294092 787.55132042 552.07421875 788.31640625 C551.42211426 788.55032578 550.77000977 788.7842453 550.09814453 789.0252533 C547.30967552 790.0020778 545.16896556 790.625 542.1875 790.625 C541.70683465 792.52045392 541.22803257 794.41638039 540.75 796.3125 C540.48316406 797.36824219 540.21632813 798.42398438 539.94140625 799.51171875 C539.56822266 801.05279297 539.56822266 801.05279297 539.1875 802.625 C538.95595215 803.43219482 538.7244043 804.23938965 538.48583984 805.07104492 C538.11230133 808.26874249 538.7164694 809.09243382 540.66015625 811.6015625 C541.2231543 812.34510986 541.78615234 813.08865723 542.36621094 813.85473633 C542.98786133 814.64517334 543.60951172 815.43561035 544.25 816.25 C545.54855127 817.95414202 546.84671747 819.65857751 548.14453125 821.36328125 C548.81564941 822.2342041 549.48676758 823.10512695 550.17822266 824.00244141 C553.32177357 828.10548198 556.37974659 832.27034126 559.4375 836.4375 C560.59374558 838.01172199 561.7499955 839.58594081 562.90625 841.16015625 C563.45667969 841.91055176 564.00710938 842.66094727 564.57421875 843.43408203 C566.11328169 845.52420776 567.66490143 847.60445006 569.21875 849.68359375 C570.12549282 850.91369938 571.03177381 852.14414563 571.9375 853.375 C572.71609375 854.42171875 573.4946875 855.4684375 574.296875 856.546875 C577.44691331 861.67544977 578.80038197 866.56454927 577.78515625 872.57421875 C576.03928415 878.56495636 573.00804828 882.6056457 567.52572632 885.65240479 C562.46443759 887.75766943 556.94890683 888.23032627 551.5546875 888.984375 C550.231284 889.1792794 548.908054 889.37536516 547.58499146 889.5725708 C544.82429021 889.98112362 542.062471 890.38036102 539.29931641 890.77197266 C535.7658338 891.27280771 532.2348874 891.78933463 528.70455742 892.31188583 C525.32201312 892.81201561 521.9384309 893.30493366 518.5546875 893.796875 C517.29002655 893.9811908 516.0253656 894.16550659 514.72238159 894.35540771 C513.54410797 894.52268372 512.36583435 894.68995972 511.15185547 894.86230469 C510.11817841 895.0101239 509.08450134 895.15794312 508.01950073 895.3102417 C505.37910433 895.60370444 502.84110385 895.68446387 500.1875 895.625 C499.94 896.470625 499.6925 897.31625 499.4375 898.1875 C498.44236806 900.92411284 497.53573105 902.73903722 496 905.125 C493.86512258 909.24752192 494.07884329 910.23436224 495.1875 914.625 C496.21950638 917.13482692 497.28779898 919.54428608 498.46875 921.98046875 C498.79854355 922.67578201 499.1283371 923.37109528 499.46812439 924.08747864 C500.1717 925.56828731 500.87869449 927.04747567 501.58883667 928.52514648 C502.69474033 930.82757394 503.79013392 933.13474503 504.88305664 935.44335938 C507.94455459 941.89968054 511.03029704 948.34155379 514.21484375 954.73828125 C514.6325 955.58688721 515.05015625 956.43549316 515.48046875 957.30981445 C516.20994334 958.78541333 516.95216081 960.2548287 517.7109375 961.71557617 C520.83320749 968.04553971 522.19231938 974.98677907 520.1875 981.875 C517.84480169 987.15944277 513.77219748 990.60959959 508.44873047 992.70092773 C505.05746835 993.66184457 502.50426943 993.79044205 498.99609375 993.63671875 C497.81426514 993.59023193 496.63243652 993.54374512 495.41479492 993.49584961 C493.53884644 993.40509155 493.53884644 993.40509155 491.625 993.3125 C489.68620972 993.23237671 489.68620972 993.23237671 487.70825195 993.15063477 C480.95721826 992.86594507 474.20843123 992.53418671 467.46020508 992.18969727 C464.93090098 992.06525044 462.40130689 991.95952568 459.87109375 991.85546875 C456.78449153 991.72519215 453.73308284 991.49066055 450.66015625 991.17578125 C445.14191305 990.71571929 440.85638074 990.44404558 436.16796875 993.76171875 C433.48661091 996.71491932 431.66726927 998.91011656 430.1875 1002.625 C430.61489661 1009.84488628 432.29603401 1016.58577117 434.12890625 1023.5625 C434.71834556 1025.86191597 435.30753056 1028.16139714 435.89648438 1030.4609375 C436.82312367 1034.04954536 437.75318258 1037.63720692 438.68823242 1041.22363281 C439.59448377 1044.70925164 440.4873995 1048.19808553 441.37890625 1051.6875 C441.80073936 1053.2816272 441.80073936 1053.2816272 442.23109436 1054.90795898 C444.37213605 1063.33203759 445.83747655 1071.02640596 441.390625 1078.90234375 C438.57970971 1082.92706337 434.87491405 1085.34661435 430.1875 1086.625 C422.42430343 1087.10781024 415.77927363 1085.52679993 408.3046875 1083.52734375 C405.8138174 1082.88470625 403.32293151 1082.24212996 400.83203125 1081.59960938 C397.58833212 1080.75108391 394.34521493 1079.90047924 391.10302734 1079.04620361 C386.67390667 1077.87963448 382.24006273 1076.73246315 377.8046875 1075.58984375 C376.06383377 1075.12275246 376.06383377 1075.12275246 374.28781128 1074.64622498 C367.34573083 1072.86319826 362.19417014 1071.68362375 355.53515625 1074.91015625 C351.80233657 1077.81346045 349.39713631 1080.04935029 348.75561523 1084.87109375 C348.79372314 1086.10988281 348.83183105 1087.34867188 348.87109375 1088.625 C348.88756958 1089.31481461 348.90404541 1090.00462921 348.92102051 1090.71534729 C348.98483843 1093.02016459 349.08318914 1095.3216765 349.1875 1097.625 C349.2369426 1098.84653275 349.2369426 1098.84653275 349.28738403 1100.09274292 C349.53911782 1106.25201765 349.85672235 1112.40703875 350.1875 1118.5625 C350.3318929 1121.28682573 350.47502553 1124.01120123 350.61547852 1126.73573303 C350.70207833 1128.41216038 350.79092918 1130.08847375 350.88256836 1131.76463318 C351.90513406 1151.39102787 351.90513406 1151.39102787 346.640625 1157.38671875 C342.59535366 1161.08295119 338.79656623 1163.52139877 333.16333008 1163.68310547 C325.78215284 1163.27651847 320.04362473 1160.58445857 313.52200317 1157.24954224 C311.65092669 1156.29381879 309.77065566 1155.35904067 307.88647461 1154.42944336 C305.28090968 1153.14337152 302.67812538 1151.85196915 300.07763672 1150.55566406 C293.99958815 1147.53268712 287.88676565 1144.58956173 281.75 1141.6875 C280.67363281 1141.1618042 279.59726562 1140.6361084 278.48828125 1140.09448242 C276.98007813 1139.38449097 276.98007813 1139.38449097 275.44140625 1138.66015625 C274.56814697 1138.2412915 273.6948877 1137.82242676 272.79516602 1137.39086914 C268.70681665 1136.19012465 265.48344246 1137.00351816 261.703125 1138.81640625 C260.95546875 1139.26886719 260.2078125 1139.72132812 259.4375 1140.1875 C255.3773017 1142.625 255.3773017 1142.625 253.1875 1142.625 C253.13430099 1143.34681961 253.08110199 1144.06863922 253.02629089 1144.81233215 C252.16692468 1155.83926658 250.61972314 1166.73914504 249.02368164 1177.67993164 C248.67398156 1180.10566009 248.33383872 1182.53278518 248.00317383 1184.96118164 C247.52035518 1188.50240917 247.00756004 1192.03817598 246.48828125 1195.57421875 C246.34739578 1196.64943283 246.20651031 1197.72464691 246.06135559 1198.83244324 C244.97840855 1205.90297894 242.9203077 1211.17860628 238.1875 1216.625 C233.94259968 1219.57797413 229.3554993 1220.76172272 224.1875 1220.625 C216.47624281 1219.1810037 210.99425339 1214.86931717 205 1210.0625 C203.14056189 1208.60778993 201.2798838 1207.15466343 199.41796875 1205.703125 C198.0729126 1204.64834961 198.0729126 1204.64834961 196.70068359 1203.57226562 C192.93499434 1200.65453321 189.07902634 1197.87843929 185.16015625 1195.17089844 C182.11667906 1193.05676874 179.22564473 1190.85278877 176.38671875 1188.46875 C169.95778695 1182.74896029 169.95778695 1182.74896029 162.0078125 1180.56640625 C159.21924469 1181.34856551 156.79029165 1182.36742222 154.1875 1183.625 C152.19425922 1183.99662116 150.19682387 1184.35346975 148.1875 1184.625 C147.93983887 1185.87063721 147.69217773 1187.11627441 147.43701172 1188.3996582 C146.14869162 1194.17878466 144.20152289 1199.66709617 142.1953125 1205.23046875 C141.80810028 1206.31330643 141.42088806 1207.3961441 141.02194214 1208.51179504 C140.20605308 1210.78775387 139.38732983 1213.06269849 138.56591797 1215.33666992 C137.31382727 1218.80881936 136.07639528 1222.28596273 134.83984375 1225.76367188 C134.04255062 1227.98208872 133.24440258 1230.20019855 132.4453125 1232.41796875 C131.89509933 1233.96970039 131.89509933 1233.96970039 131.33377075 1235.55278015 C128.63856679 1242.95766364 126.03080893 1249.16889186 119.1875 1253.625 C114.06400138 1255.65506549 109.45759677 1256.26249435 104.1875 1254.625 C98.32688166 1251.79144632 94.49851046 1248.1969804 90.1875 1243.375 C89.57084473 1242.69969238 88.95418945 1242.02438477 88.31884766 1241.32861328 C84.83275176 1237.49880477 81.39441878 1233.62798647 78.015625 1229.703125 C74.98974115 1226.26344507 71.87202353 1222.90685823 68.73217773 1219.57104492 C66.2937767 1216.96975398 63.99766482 1214.38172513 61.80078125 1211.56640625 C57.97333323 1206.50906224 57.97333323 1206.50906224 52.3984375 1203.9765625 C49.55185432 1203.93819885 46.99287737 1204.15402424 44.1875 1204.625 C43.22996826 1204.66955322 42.27243652 1204.71410645 41.28588867 1204.76000977 C37.74537973 1205.74842858 36.80752296 1206.91852434 34.96846008 1210.02964783 C34.45813484 1210.96243309 34.45813484 1210.96243309 33.9375 1211.9140625 C33.5619548 1212.56125748 33.18640961 1213.20845245 32.79948425 1213.8752594 C31.99518433 1215.26696299 31.20010518 1216.66402851 30.41342163 1218.06576538 C29.18070527 1220.26210623 27.92481311 1222.443519 26.66137695 1224.62231445 C24.96322223 1227.55448153 23.27377654 1230.49135146 21.59228516 1233.43310547 C18.25299797 1239.2663391 14.83443702 1245.04962595 11.375 1250.8125 C10.83166016 1251.7420752 10.28832031 1252.67165039 9.72851562 1253.62939453 C6.20955937 1259.49468864 2.9443758 1264.37270807 -3.8125 1266.625 C-16.2250725 1267.73196918 -16.2250725 1267.73196918 -21.12695312 1264.15356445 C-28.01920563 1257.90321785 -32.37556494 1248.47975746 -36.97836304 1240.50109863 C-38.0839537 1238.58787438 -39.19756725 1236.67954025 -40.3137207 1234.77246094 C-43.62161862 1229.11924048 -46.91137332 1223.45757307 -50.15234375 1217.765625 C-51.1008359 1216.13499381 -52.04999232 1214.50474871 -53 1212.875 C-53.61246582 1211.76898437 -53.61246582 1211.76898437 -54.23730469 1210.640625 C-56.11929403 1207.45260667 -57.16930025 1205.82525744 -60.7734375 1204.703125 C-61.77632812 1204.67734375 -62.77921875 1204.6515625 -63.8125 1204.625 C-64.71871094 1204.5115625 -65.62492188 1204.398125 -66.55859375 1204.28125 C-71.94986214 1203.93125203 -71.94986214 1203.93125203 -76.83203125 1205.90625 C-78.65421829 1207.71609718 -80.23370625 1209.60010974 -81.8125 1211.625 C-82.86942531 1212.83821251 -83.93213213 1214.04640792 -85 1215.25 C-85.57363281 1215.91515625 -86.14726563 1216.5803125 -86.73828125 1217.265625 C-89.33879248 1220.22364531 -92.00985831 1223.11187952 -94.6875 1226 C-98.33579297 1229.93782204 -101.97063798 1233.88542316 -105.5625 1237.875 C-106.27535156 1238.66519531 -106.98820313 1239.45539063 -107.72265625 1240.26953125 C-109.14644078 1241.87428278 -110.54944258 1243.49765945 -111.93359375 1245.13671875 C-117.11169702 1251.21536172 -121.34541185 1254.94768441 -129.66796875 1255.6796875 C-135.34027127 1255.53503862 -139.79130593 1253.93081239 -143.7578125 1249.85546875 C-148.03448576 1244.60921816 -149.88754699 1238.25484096 -152.0625 1231.9375 C-152.52961061 1230.61628648 -152.99813945 1229.2955736 -153.46801758 1227.9753418 C-154.43832353 1225.24269764 -155.40009649 1222.50726011 -156.35595703 1219.76953125 C-157.7879292 1215.67852599 -159.26258158 1211.60379753 -160.74609375 1207.53125 C-161.6647298 1205.00024165 -162.58228651 1202.46884313 -163.5 1199.9375 C-164.1511377 1198.14856323 -164.1511377 1198.14856323 -164.81542969 1196.32348633 C-165.21020508 1195.22286865 -165.60498047 1194.12225098 -166.01171875 1192.98828125 C-166.36065186 1192.02188721 -166.70958496 1191.05549316 -167.0690918 1190.05981445 C-167.8125 1187.625 -167.8125 1187.625 -167.8125 1184.625 C-169.70795392 1184.14433465 -171.60388039 1183.66553257 -173.5 1183.1875 C-174.55574219 1182.92066406 -175.61148437 1182.65382813 -176.69921875 1182.37890625 C-177.72660156 1182.13011719 -178.75398438 1181.88132812 -179.8125 1181.625 C-180.61969482 1181.39345215 -181.42688965 1181.1619043 -182.25854492 1180.92333984 C-185.45624249 1180.54980133 -186.27993382 1181.1539694 -188.7890625 1183.09765625 C-189.53260986 1183.6606543 -190.27615723 1184.22365234 -191.04223633 1184.80371094 C-191.83267334 1185.42536133 -192.62311035 1186.04701172 -193.4375 1186.6875 C-195.14164202 1187.98605127 -196.84607751 1189.28421747 -198.55078125 1190.58203125 C-199.4217041 1191.25314941 -200.29262695 1191.92426758 -201.18994141 1192.61572266 C-206.07696339 1196.35992215 -211.04940395 1199.98847386 -216.01586914 1203.6262207 C-219.62492067 1206.2712543 -223.21945245 1208.92731721 -226.765625 1211.65625 C-238.94381009 1220.91741753 -238.94381009 1220.91741753 -246.8125 1220.625 C-252.87147945 1219.6345899 -256.90119875 1217.45660743 -260.8125 1212.625 C-263.31091152 1208.95831366 -264.33392498 1206.00783122 -264.97924805 1201.62890625 C-265.15920822 1200.44417725 -265.3391684 1199.25944824 -265.52458191 1198.03881836 C-265.79665215 1196.13241577 -265.79665215 1196.13241577 -266.07421875 1194.1875 C-266.27085536 1192.86128202 -266.46836382 1191.53519305 -266.66670227 1190.20922852 C-267.07919506 1187.43632207 -267.48448485 1184.66249604 -267.8840332 1181.88769531 C-268.39514399 1178.33882369 -268.91897855 1174.79198695 -269.44757366 1171.24568176 C-269.95275589 1167.85196683 -270.45106169 1164.45725184 -270.94921875 1161.0625 C-271.1366716 1159.79156494 -271.32412445 1158.52062988 -271.51725769 1157.21118164 C-271.68776138 1156.02645264 -271.85826508 1154.84172363 -272.03393555 1153.62109375 C-272.18477097 1152.58138428 -272.33560638 1151.5416748 -272.49101257 1150.47045898 C-272.78998368 1147.82429008 -272.87339979 1145.28480652 -272.8125 1142.625 C-274.0809375 1142.25375 -274.0809375 1142.25375 -275.375 1141.875 C-278.11161284 1140.87986806 -279.92653722 1139.97323105 -282.3125 1138.4375 C-286.44711596 1136.29635959 -287.40713227 1136.50205024 -291.8125 1137.625 C-294.50054869 1138.67055191 -297.08238772 1139.90027767 -299.67578125 1141.16015625 C-300.42603073 1141.51710068 -301.17628021 1141.8740451 -301.94926453 1142.24180603 C-304.34461506 1143.38333143 -306.73485823 1144.53511454 -309.125 1145.6875 C-310.68781518 1146.43494744 -312.2509638 1147.18169813 -313.81445312 1147.92773438 C-322.01344952 1151.84071387 -322.01344952 1151.84071387 -330.2003479 1155.77890015 C-332.50870527 1156.89426858 -334.82045293 1158.00233307 -337.1328125 1159.109375 C-337.82478226 1159.4464296 -338.51675201 1159.78348419 -339.22969055 1160.13075256 C-346.00148123 1163.35769611 -351.79074659 1164.76696114 -359.0625 1162.625 C-364.3416064 1160.28466741 -367.7887511 1156.21584899 -369.88842773 1150.90209961 C-370.86728199 1147.43072295 -370.97474864 1144.77289671 -370.82421875 1141.1796875 C-370.77773193 1139.94750488 -370.73124512 1138.71532227 -370.68334961 1137.44580078 C-370.62284424 1136.14368652 -370.56233887 1134.84157227 -370.5 1133.5 C-370.44511855 1132.14440568 -370.39117065 1130.78877325 -370.33813477 1129.43310547 C-370.06715478 1122.68147793 -369.73917552 1115.93265395 -369.37719727 1109.18530273 C-369.25300577 1106.80754805 -369.14717664 1104.42948318 -369.04296875 1102.05078125 C-368.9092516 1099.07443313 -368.66946582 1096.13123481 -368.36328125 1093.16796875 C-367.9013171 1087.63255858 -367.62448891 1083.30602484 -370.94921875 1078.6015625 C-373.90277261 1075.92400321 -376.09965185 1074.10395854 -379.8125 1072.625 C-387.03238628 1073.05239661 -393.77327117 1074.73353401 -400.75 1076.56640625 C-403.04941597 1077.15584556 -405.34889714 1077.74503056 -407.6484375 1078.33398438 C-411.23704536 1079.26062367 -414.82470692 1080.19068258 -418.41113281 1081.12573242 C-421.89675164 1082.03198377 -425.38558553 1082.9248995 -428.875 1083.81640625 C-429.93775146 1084.09762833 -431.00050293 1084.3788504 -432.09545898 1084.66859436 C-440.51953759 1086.80963605 -448.21390596 1088.27497655 -456.08984375 1083.828125 C-460.11456337 1081.01720971 -462.53411435 1077.31241405 -463.8125 1072.625 C-464.29531024 1064.86180343 -462.71429993 1058.21677363 -460.71484375 1050.7421875 C-460.07220625 1048.2513174 -459.42962996 1045.76043151 -458.78710938 1043.26953125 C-457.93858391 1040.02583212 -457.08797924 1036.78271493 -456.23370361 1033.54052734 C-455.06713448 1029.11140667 -453.91996315 1024.67756273 -452.77734375 1020.2421875 C-452.46594955 1019.08161835 -452.15455536 1017.92104919 -451.83372498 1016.72531128 C-450.05069826 1009.78323083 -448.87112375 1004.63167014 -452.09765625 997.97265625 C-455.00096045 994.23983657 -457.23685029 991.83463631 -462.05859375 991.19311523 C-463.29738281 991.23122314 -464.53617188 991.26933105 -465.8125 991.30859375 C-466.50231461 991.32506958 -467.19212921 991.34154541 -467.90284729 991.35852051 C-470.20766459 991.42233843 -472.5091765 991.52068914 -474.8125 991.625 C-476.03403275 991.6744426 -476.03403275 991.6744426 -477.28024292 991.72488403 C-483.43951765 991.97661782 -489.59453875 992.29422235 -495.75 992.625 C-498.47432573 992.7693929 -501.19870123 992.91252553 -503.92323303 993.05297852 C-505.59966038 993.13957833 -507.27597375 993.22842918 -508.95213318 993.32006836 C-528.57852787 994.34263406 -528.57852787 994.34263406 -534.57421875 989.078125 C-538.27045119 985.03285366 -540.70889877 981.23406623 -540.87060547 975.60083008 C-540.46401847 968.21965284 -537.77195857 962.48112473 -534.43704224 955.95950317 C-533.48131879 954.08842669 -532.54654067 952.20815566 -531.61694336 950.32397461 C-530.33087152 947.71840968 -529.03946915 945.11562538 -527.74316406 942.51513672 C-524.72018712 936.43708815 -521.77706173 930.32426565 -518.875 924.1875 C-518.3493042 923.11113281 -517.8236084 922.03476562 -517.28198242 920.92578125 C-516.57199097 919.41757813 -516.57199097 919.41757813 -515.84765625 917.87890625 C-515.21935913 916.56901733 -515.21935913 916.56901733 -514.57836914 915.23266602 C-513.37762465 911.14431665 -514.19101816 907.92094246 -516.00390625 904.140625 C-516.45636719 903.39296875 -516.90882813 902.6453125 -517.375 901.875 C-519.8125 897.8148017 -519.8125 897.8148017 -519.8125 895.625 C-520.53431961 895.57180099 -521.25613922 895.51860199 -521.99983215 895.46379089 C-533.02676658 894.60442468 -543.92664504 893.05722314 -554.86743164 891.46118164 C-557.29316009 891.11148156 -559.72028518 890.77133872 -562.14868164 890.44067383 C-565.68990917 889.95785518 -569.22567598 889.44506004 -572.76171875 888.92578125 C-574.37453987 888.71445305 -574.37453987 888.71445305 -576.01994324 888.49885559 C-583.11190017 887.4126276 -588.32186403 885.32308918 -593.8125 880.625 C-596.88186592 876.40964811 -598.15864993 871.39495074 -598 866.1875 C-596.07105402 855.6242244 -586.77998608 846.53672675 -580.37109375 838.2578125 C-576.61356965 833.39070502 -572.95474561 828.45372493 -569.3125 823.5 C-568.73749756 822.71882812 -568.16249512 821.93765625 -567.57006836 821.1328125 C-566.48480137 819.65500214 -565.40532452 818.17291691 -564.33251953 816.68603516 C-563.34146655 815.3422399 -562.31722649 814.02211919 -561.25732422 812.73193359 C-558.94349295 809.83626637 -557.78536198 808.26513806 -557.9453125 804.4921875 C-558.27273438 803.50476563 -558.60015625 802.51734375 -558.9375 801.5 C-559.40542969 800.01113281 -559.40542969 800.01113281 -559.8828125 798.4921875 C-560.18960938 797.54601562 -560.49640625 796.59984375 -560.8125 795.625 C-561.17017681 793.96338747 -561.51222883 792.29793936 -561.8125 790.625 C-563.05813721 790.37733887 -564.30377441 790.12967773 -565.5871582 789.87451172 C-571.36628466 788.58619162 -576.85459617 786.63902289 -582.41796875 784.6328125 C-583.50080643 784.24560028 -584.5836441 783.85838806 -585.69929504 783.45944214 C-587.97525387 782.64355308 -590.25019849 781.82482983 -592.52416992 781.00341797 C-595.99631936 779.75132727 -599.47346273 778.51389528 -602.95117188 777.27734375 C-605.16958872 776.48005062 -607.38769855 775.68190258 -609.60546875 774.8828125 C-610.63995651 774.51600372 -611.67444427 774.14919495 -612.74028015 773.77127075 C-620.14516364 771.07606679 -626.35639186 768.46830893 -630.8125 761.625 C-632.84256549 756.50150138 -633.44999435 751.89509677 -631.8125 746.625 C-628.97894632 740.76438166 -625.3844804 736.93601046 -620.5625 732.625 C-619.88719238 732.00834473 -619.21188477 731.39168945 -618.51611328 730.75634766 C-614.68630477 727.27025176 -610.81548647 723.83191878 -606.890625 720.453125 C-603.45128979 717.4275444 -600.09619444 714.30908112 -596.75854492 711.171875 C-594.15399053 708.7330823 -591.55499793 706.42110309 -588.75390625 704.203125 C-583.81251507 700.45998564 -583.81251507 700.45998564 -581.1640625 695.09375 C-581.12478171 692.48550577 -581.36096387 690.19286632 -581.8125 687.625 C-581.85705322 686.50697998 -581.90160645 685.38895996 -581.94750977 684.23706055 C-582.48141289 680.45437861 -582.48141289 680.45437861 -585.49853516 678.30834961 C-586.68543308 677.60690264 -587.88784665 676.93129205 -589.1015625 676.27734375 C-589.74875748 675.9032135 -590.39595245 675.52908325 -591.0627594 675.14361572 C-593.17596728 673.92798397 -595.30620666 672.74608202 -597.4375 671.5625 C-598.89649687 670.72773471 -600.35392947 669.89022968 -601.80981445 669.05004883 C-604.74107407 667.36107886 -607.67793762 665.68268409 -610.62060547 664.01367188 C-616.46242427 660.69395321 -622.24094596 657.27392253 -628 653.8125 C-629.39436279 652.99736938 -629.39436279 652.99736938 -630.81689453 652.16577148 C-636.68235582 648.64726547 -641.56026056 645.38171833 -643.8125 638.625 C-644.91946918 626.2124275 -644.91946918 626.2124275 -641.34106445 621.31054688 C-635.0906944 614.41826851 -625.66731967 610.06211354 -617.68859863 605.45941162 C-615.77512835 604.35339865 -613.86689457 603.23882348 -611.95996094 602.12158203 C-606.31276272 598.81439639 -600.65707562 595.52903525 -594.953125 592.3203125 C-593.32265309 591.38066554 -591.69242187 590.44060074 -590.0625 589.5 C-589.32515625 589.10006836 -588.5878125 588.70013672 -587.828125 588.28808594 C-584.2887442 586.21595821 -582.95617544 585.16926204 -581.890625 581.1328125 C-581.85195313 579.39644531 -581.85195313 579.39644531 -581.8125 577.625 C-581.6990625 576.75875 -581.585625 575.8925 -581.46875 575 C-581.23429671 571.43630992 -581.08622407 568.72991369 -583.09375 565.67578125 C-584.9068136 563.84211465 -586.79627953 562.23179639 -588.8125 560.625 C-590.02440102 559.56657116 -591.23263612 558.50393271 -592.4375 557.4375 C-593.43523438 556.57705078 -593.43523438 556.57705078 -594.453125 555.69921875 C-597.41114531 553.09870752 -600.29937952 550.42764169 -603.1875 547.75 C-607.12532204 544.10170703 -611.07292316 540.46686202 -615.0625 536.875 C-615.85269531 536.16214844 -616.64289062 535.44929687 -617.45703125 534.71484375 C-619.06178278 533.29105922 -620.68515945 531.88805742 -622.32421875 530.50390625 C-628.40286172 525.32580298 -632.13518441 521.09208815 -632.8671875 512.76953125 C-632.72253862 507.09722873 -631.11831239 502.64619407 -627.04296875 498.6796875 C-621.79671816 494.40301424 -615.44234096 492.54995301 -609.125 490.375 C-607.80378648 489.90788939 -606.4830736 489.43936055 -605.1628418 488.96948242 C-602.43019764 487.99917647 -599.69476011 487.03740351 -596.95703125 486.08154297 C-592.86602599 484.6495708 -588.79129753 483.17491842 -584.71875 481.69140625 C-582.18774165 480.7727702 -579.65634313 479.85521349 -577.125 478.9375 C-575.93237549 478.5034082 -574.73975098 478.06931641 -573.51098633 477.62207031 C-571.86005981 477.02990723 -571.86005981 477.02990723 -570.17578125 476.42578125 C-568.72619019 475.90238159 -568.72619019 475.90238159 -567.24731445 475.3684082 C-564.8125 474.625 -564.8125 474.625 -561.8125 474.625 C-561.33183465 472.72954608 -560.85303257 470.83361961 -560.375 468.9375 C-559.97474609 467.35388672 -559.97474609 467.35388672 -559.56640625 465.73828125 C-559.31761719 464.71089844 -559.06882812 463.68351562 -558.8125 462.625 C-558.58095215 461.81780518 -558.3494043 461.01061035 -558.11083984 460.17895508 C-557.73730133 456.98125751 -558.3414694 456.15756618 -560.28515625 453.6484375 C-560.8481543 452.90489014 -561.41115234 452.16134277 -561.99121094 451.39526367 C-562.61286133 450.60482666 -563.23451172 449.81438965 -563.875 449 C-565.17355127 447.29585798 -566.47171747 445.59142249 -567.76953125 443.88671875 C-568.7762085 442.58033447 -568.7762085 442.58033447 -569.80322266 441.24755859 C-572.94677357 437.14451802 -576.00474659 432.97965874 -579.0625 428.8125 C-580.21874558 427.23827801 -581.3749955 425.66405919 -582.53125 424.08984375 C-583.08167969 423.33944824 -583.63210938 422.58905273 -584.19921875 421.81591797 C-585.73828169 419.72579224 -587.28990143 417.64554994 -588.84375 415.56640625 C-589.75049282 414.33630062 -590.65677381 413.10585437 -591.5625 411.875 C-592.34109375 410.82828125 -593.1196875 409.7815625 -593.921875 408.703125 C-597.07191331 403.57455023 -598.42538197 398.68545073 -597.41015625 392.67578125 C-595.66428415 386.68504364 -592.63304828 382.6443543 -587.15072632 379.59759521 C-582.08943759 377.49233057 -576.57390683 377.01967373 -571.1796875 376.265625 C-569.856284 376.0707206 -568.533054 375.87463484 -567.20999146 375.6774292 C-564.44929021 375.26887638 -561.687471 374.86963898 -558.92431641 374.47802734 C-555.3908338 373.97719229 -551.8598874 373.46066537 -548.32955742 372.93811417 C-544.94701312 372.43798439 -541.5634309 371.94506634 -538.1796875 371.453125 C-536.28269608 371.17665131 -536.28269608 371.17665131 -534.34738159 370.89459229 C-533.16910797 370.72731628 -531.99083435 370.56004028 -530.77685547 370.38769531 C-529.74317841 370.2398761 -528.70950134 370.09205688 -527.64450073 369.9397583 C-525.00410433 369.64629556 -522.46610385 369.56553613 -519.8125 369.625 C-519.565 368.779375 -519.3175 367.93375 -519.0625 367.0625 C-518.06736806 364.32588716 -517.16073105 362.51096278 -515.625 360.125 C-513.49012258 356.00247808 -513.70384329 355.01563776 -514.8125 350.625 C-515.84450638 348.11517308 -516.91279898 345.70571392 -518.09375 343.26953125 C-518.42354355 342.57421799 -518.7533371 341.87890472 -519.09312439 341.16252136 C-519.7967 339.68171269 -520.50369449 338.20252433 -521.21383667 336.72485352 C-522.31974033 334.42242606 -523.41513392 332.11525497 -524.50805664 329.80664062 C-527.56955459 323.35031946 -530.65529704 316.90844621 -533.83984375 310.51171875 C-534.2575 309.66311279 -534.67515625 308.81450684 -535.10546875 307.94018555 C-535.83494334 306.46458667 -536.57716081 304.9951713 -537.3359375 303.53442383 C-540.45820749 297.20446029 -541.81731938 290.26322093 -539.8125 283.375 C-537.46980169 278.09055723 -533.39719748 274.64040041 -528.07373047 272.54907227 C-524.68246835 271.58815543 -522.12926943 271.45955795 -518.62109375 271.61328125 C-517.43926514 271.65976807 -516.25743652 271.70625488 -515.03979492 271.75415039 C-513.7891626 271.81465576 -512.53853027 271.87516113 -511.25 271.9375 C-509.31120972 272.01762329 -509.31120972 272.01762329 -507.33325195 272.09936523 C-500.58221826 272.38405493 -493.83343123 272.71581329 -487.08520508 273.06030273 C-484.55590098 273.18474956 -482.02630689 273.29047432 -479.49609375 273.39453125 C-476.40949153 273.52480785 -473.35808284 273.75933945 -470.28515625 274.07421875 C-464.76691305 274.53428071 -460.48138074 274.80595442 -455.79296875 271.48828125 C-453.11161091 268.53508068 -451.29226927 266.33988344 -449.8125 262.625 C-450.23989661 255.40511372 -451.92103401 248.66422883 -453.75390625 241.6875 C-454.34334556 239.38808403 -454.93253056 237.08860286 -455.52148438 234.7890625 C-456.44812367 231.20045464 -457.37818258 227.61279308 -458.31323242 224.02636719 C-459.21948377 220.54074836 -460.1123995 217.05191447 -461.00390625 213.5625 C-461.42573936 211.9683728 -461.42573936 211.9683728 -461.85609436 210.34204102 C-463.99713605 201.91796241 -465.46247655 194.22359404 -461.015625 186.34765625 C-458.20470971 182.32293663 -454.49991405 179.90338565 -449.8125 178.625 C-442.04930343 178.14218976 -435.40427363 179.72320007 -427.9296875 181.72265625 C-425.4388174 182.36529375 -422.94793151 183.00787004 -420.45703125 183.65039062 C-417.21333212 184.49891609 -413.97021493 185.34952076 -410.72802734 186.20379639 C-406.29890667 187.37036552 -401.86506273 188.51753685 -397.4296875 189.66015625 C-396.26911835 189.97155045 -395.10854919 190.28294464 -393.91281128 190.60377502 C-386.97073083 192.38680174 -381.81917014 193.56637625 -375.16015625 190.33984375 C-371.42733657 187.43653955 -369.02213631 185.20064971 -368.38061523 180.37890625 C-368.41872314 179.14011719 -368.45683105 177.90132812 -368.49609375 176.625 C-368.51256958 175.93518539 -368.52904541 175.24537079 -368.54602051 174.53465271 C-368.60983843 172.22983541 -368.70818914 169.9283235 -368.8125 167.625 C-368.8619426 166.40346725 -368.8619426 166.40346725 -368.91238403 165.15725708 C-369.16411782 158.99798235 -369.48172235 152.84296125 -369.8125 146.6875 C-369.9568929 143.96317427 -370.10002553 141.23879877 -370.24047852 138.51426697 C-370.32707833 136.83783962 -370.41592918 135.16152625 -370.50756836 133.48536682 C-371.53013406 113.85897213 -371.53013406 113.85897213 -366.265625 107.86328125 C-362.22035366 104.16704881 -358.42156623 101.72860123 -352.78833008 101.56689453 C-345.40715284 101.97348153 -339.66862473 104.66554143 -333.14700317 108.00045776 C-331.27592669 108.95618121 -329.39565566 109.89095933 -327.51147461 110.82055664 C-324.90590968 112.10662848 -322.30312538 113.39803085 -319.70263672 114.69433594 C-313.62458815 117.71731288 -307.51176565 120.66043827 -301.375 123.5625 C-300.29863281 124.0881958 -299.22226562 124.6138916 -298.11328125 125.15551758 C-297.1078125 125.62884521 -296.10234375 126.10217285 -295.06640625 126.58984375 C-293.75651733 127.21814087 -293.75651733 127.21814087 -292.42016602 127.85913086 C-288.33181665 129.05987535 -285.10844246 128.24648184 -281.328125 126.43359375 C-280.58046875 125.98113281 -279.8328125 125.52867187 -279.0625 125.0625 C-275.0023017 122.625 -275.0023017 122.625 -272.8125 122.625 C-272.75930099 121.90318039 -272.70610199 121.18136078 -272.65129089 120.43766785 C-271.79192468 109.41073342 -270.24472314 98.51085496 -268.64868164 87.57006836 C-268.29898156 85.14433991 -267.95883872 82.71721482 -267.62817383 80.28881836 C-267.14535518 76.74759083 -266.63256004 73.21182402 -266.11328125 69.67578125 C-265.90195305 68.06296013 -265.90195305 68.06296013 -265.68635559 66.41755676 C-264.60340855 59.34702106 -262.5453077 54.07139372 -257.8125 48.625 C-253.56759968 45.67202587 -248.9804993 44.48827728 -243.8125 44.625 C-236.10124281 46.0689963 -230.61925339 50.38068283 -224.625 55.1875 C-222.76556189 56.64221007 -220.9048838 58.09533657 -219.04296875 59.546875 C-218.14626465 60.25005859 -217.24956055 60.95324219 -216.32568359 61.67773438 C-212.55956951 64.59579596 -208.70398785 67.37366686 -204.78295898 70.07910156 C-201.74412424 72.18780984 -198.8689898 74.38777445 -196.046875 76.78125 C-189.50443374 82.58232708 -189.50443374 82.58232708 -181.375 84.68359375 C-178.33748327 83.91304723 -175.6739761 82.88716166 -172.8125 81.625 C-171.15460076 81.25048833 -169.4892106 80.90344292 -167.8125 80.625 C-167.56483887 79.37936279 -167.31717773 78.13372559 -167.06201172 76.8503418 C-165.77369162 71.07121534 -163.82652289 65.58290383 -161.8203125 60.01953125 C-161.43310028 58.93669357 -161.04588806 57.8538559 -160.64694214 56.73820496 C-159.83105308 54.46224613 -159.01232983 52.18730151 -158.19091797 49.91333008 C-156.93882727 46.44118064 -155.70139528 42.96403727 -154.46484375 39.48632812 C-153.66755062 37.26791128 -152.86940258 35.04980145 -152.0703125 32.83203125 C-151.70350372 31.79754349 -151.33669495 30.76305573 -150.95877075 29.69721985 C-148.26356679 22.29233636 -145.65580893 16.08110814 -138.8125 11.625 C-133.68900138 9.59493451 -129.08259677 8.98750565 -123.8125 10.625 C-117.95188166 13.45855368 -114.12351046 17.0530196 -109.8125 21.875 C-109.19584473 22.55030762 -108.57918945 23.22561523 -107.94384766 23.92138672 C-104.45775176 27.75119523 -101.01941878 31.62201353 -97.640625 35.546875 C-94.6150444 38.98621021 -91.49658112 42.34130556 -88.359375 45.67895508 C-85.9205823 48.28350947 -83.60860309 50.88250207 -81.390625 53.68359375 C-77.64748564 58.62498493 -77.64748564 58.62498493 -72.28125 61.2734375 C-69.67300577 61.31271829 -67.38036632 61.07653613 -64.8125 60.625 C-63.69447998 60.58044678 -62.57645996 60.53589355 -61.42456055 60.48999023 C-57.64187861 59.95608711 -57.64187861 59.95608711 -55.49584961 56.93896484 C-54.79440264 55.75206692 -54.11879205 54.54965335 -53.46484375 53.3359375 C-53.0907135 52.68874252 -52.71658325 52.04154755 -52.33111572 51.3747406 C-51.11548397 49.26153272 -49.93358202 47.13129334 -48.75 45 C-47.91523471 43.54100313 -47.07772968 42.08357053 -46.23754883 40.62768555 C-44.54857886 37.69642593 -42.87018409 34.75956238 -41.20117188 31.81689453 C-37.88145321 25.97507573 -34.46142253 20.19655404 -31 14.4375 C-30.18486938 13.04313721 -30.18486938 13.04313721 -29.35327148 11.62060547 C-23.03187177 1.08263136 -12.64266136 -6.13413866 0 0 Z M-39.6875 129.375 C-44.31343111 136.43732638 -47.12642023 145.12931123 -45.8125 153.625 C-43.40509482 164.8738873 -38.73669232 173.66481509 -29.1796875 180.33984375 C-20.14463888 185.24501041 -10.8763402 187.07331211 -0.9375 184.5 C9.4800263 181.0702298 17.24416069 175.37288827 22.4375 165.6875 C27.18774304 155.41509944 27.04762428 146.48913764 23.50390625 135.80859375 C19.89568526 127.08248066 13.43510214 121.0613924 5.1875 116.625 C-11.81207588 109.97196264 -28.6453492 114.88217707 -39.6875 129.375 Z M-114.375 179.5625 C-115.0325528 179.71705658 -115.69010559 179.87161316 -116.36758423 180.03085327 C-149.02288993 187.7535611 -180.60255571 199.05278117 -210.8125 213.625 C-211.74400879 214.06956543 -212.67551758 214.51413086 -213.63525391 214.97216797 C-246.61856224 230.76837355 -277.92747953 250.92889277 -305.8125 274.625 C-306.89446106 275.53263576 -307.97649676 276.44018255 -309.05859375 277.34765625 C-321.10934888 287.50979677 -332.54467628 298.29204331 -343.75 309.375 C-344.45495605 310.0669043 -345.15991211 310.75880859 -345.88623047 311.47167969 C-346.53092285 312.11524414 -347.17561523 312.75880859 -347.83984375 313.421875 C-348.70210571 314.27797363 -348.70210571 314.27797363 -349.58178711 315.15136719 C-351.02616984 316.56085091 -351.02616984 316.56085091 -350.8125 318.625 C-349.74057016 318.62597681 -348.66864032 318.62695362 -347.56422776 318.62796003 C-300.29332184 318.67123192 -253.02242152 318.71821564 -205.75154114 318.78398132 C-205.03519808 318.78497689 -204.31885501 318.78597246 -203.58080459 318.78699819 C-188.01046321 318.80865979 -172.44012286 318.83098271 -156.86978341 318.85398628 C-149.23342024 318.8652642 -141.59705686 318.87639608 -133.96069336 318.88745117 C-132.82086533 318.88910502 -132.82086533 318.88910502 -131.65801048 318.89079228 C-107.05489853 318.9264221 -82.45178795 318.95241966 -57.84865951 318.97338969 C-32.55291146 318.99500117 -7.25719378 319.02639506 18.03852639 319.06999113 C21.61635373 319.07615282 25.19418125 319.0822034 28.7720089 319.08818626 C29.82819746 319.08995759 29.82819746 319.08995759 30.90572316 319.09176469 C42.21246137 319.11044192 53.5191849 319.11889302 64.82593664 319.12346124 C76.20984425 319.128281 87.59368541 319.14425272 98.97756735 319.17066566 C105.13878195 319.18463959 111.29990444 319.19386682 117.46113586 319.19000816 C123.11278363 319.18657614 128.76423531 319.19708742 134.41584297 319.21823552 C136.4498082 319.22346618 138.48379399 319.22377797 140.51775882 319.21839563 C157.48993024 319.17809256 173.81519838 320.82303552 190.125 325.75 C191.12732666 326.0493042 192.12965332 326.3486084 193.16235352 326.65698242 C214.82498743 333.366284 234.72693709 344.19670035 252.1875 358.625 C253.04770752 359.32496094 253.04770752 359.32496094 253.92529297 360.0390625 C286.52305446 386.65093218 308.8369559 424.46580825 313.71875 466.5390625 C317.48222388 504.30210159 305.13646362 539.84019605 281.3828125 569.1171875 C266.4558321 587.18451533 248.14825747 601.46595231 228.1875 613.625 C230.85401294 616.31141229 233.53939903 618.96861584 236.28125 621.578125 C264.5628883 648.76322159 283.60391751 684.2984701 292.3125 722.4375 C295.89723538 737.59401276 304.25592733 747.40211243 317.1875 755.625 C330.44808861 763.05169724 345.40464135 765.73163904 360.3125 762.5 C373.50601379 758.7502645 384.55958976 750.8821764 391.5625 739 C398.06183557 727.3289955 400.25271706 714.18809838 400.43359375 700.953125 C400.4664924 699.30337932 400.49970462 697.65363986 400.53320312 696.00390625 C400.58080271 693.42760957 400.6253576 690.85134503 400.66430664 688.27490234 C400.70393286 685.77156959 400.75544769 683.26870207 400.80859375 680.765625 C400.8170079 679.9937384 400.82542206 679.22185181 400.83409119 678.42657471 C400.92172611 674.64594306 401.04034484 672.84573275 403.1875 669.625 C405.32620239 669.22627258 405.32620239 669.22627258 408.00439453 669.19262695 C409.00528107 669.17283279 410.0061676 669.15303864 411.03738403 669.13264465 C412.12075043 669.12625473 413.20411682 669.11986481 414.3203125 669.11328125 C415.98077103 669.08635445 415.98077103 669.08635445 417.67477417 669.05888367 C421.22064368 669.00457395 424.76637703 668.97081831 428.3125 668.9375 C430.71225862 668.90434523 433.11199922 668.86985732 435.51171875 668.83398438 C441.40352373 668.74883578 447.2953459 668.68057376 453.1875 668.625 C454.18634568 661.95585351 454.36299245 655.42137186 454.390625 648.68359375 C454.39813782 647.53456573 454.40565063 646.38553772 454.41339111 645.20169067 C454.47601365 632.76839454 454.39360783 620.33639458 454.22875977 607.9041748 C454.19187714 604.97287902 454.16798203 602.04178869 454.14648438 599.11035156 C454.10216805 594.79318476 453.91708546 590.49875583 453.6875 586.1875 C453.67879883 585.002771 453.67009766 583.81804199 453.66113281 582.59741211 C453.38278597 579.01436304 452.94901398 576.76505316 451.1875 573.625 C446.99172047 570.2500738 442.51577163 568.01788626 437.64343262 565.76882935 C435.10206115 564.5852076 432.60427766 563.33502667 430.10644531 562.06225586 C425.56335558 559.75078006 420.99994868 557.48357063 416.42858887 555.22860718 C389.65030229 541.99771114 389.65030229 541.99771114 377.9375 535.8125 C376.72006104 535.19507935 376.72006104 535.19507935 375.47802734 534.56518555 C366.91470048 529.94807079 361.19721964 523.09113641 357.87890625 513.984375 C353.2283423 498.11465396 359.5642755 485.0981981 366.75 471.125 C367.47894372 469.68918443 368.20712727 468.2529827 368.93457031 466.81640625 C372.70609402 459.38648874 376.53842848 451.98882024 380.4375 444.625 C382.02410746 441.62671348 383.60796072 438.62701703 385.1875 435.625 C385.71456543 434.6237207 386.24163086 433.62244141 386.78466797 432.59082031 C388.49709423 429.3184006 390.18803527 426.03560671 391.875 422.75 C392.68855957 421.20505859 392.68855957 421.20505859 393.51855469 419.62890625 C394.01129883 418.66082031 394.50404297 417.69273437 395.01171875 416.6953125 C395.45604248 415.83695801 395.90036621 414.97860352 396.3581543 414.09423828 C397.74596203 409.9622726 396.51052507 407.30041606 394.68359375 403.48046875 C394.0079894 402.25192707 393.32086563 401.0296799 392.625 399.8125 C392.04431763 398.79119995 392.04431763 398.79119995 391.4519043 397.74926758 C375.60218685 370.45169734 356.378993 344.46473817 334.78515625 321.43359375 C332.79425378 319.28102401 330.8714918 317.10474097 328.9609375 314.8828125 C324.76462206 310.06730337 320.27568093 305.56661295 315.75 301.0625 C314.53860352 299.84530273 314.53860352 299.84530273 313.30273438 298.60351562 C308.42602367 293.73466425 303.41435536 289.11270409 298.1875 284.625 C297.06562787 283.62733457 295.945771 282.62739753 294.828125 281.625 C284.74070518 272.66087774 274.08872548 264.56966443 263.1875 256.625 C262.45772949 256.08987793 261.72795898 255.55475586 260.97607422 255.00341797 C242.66403129 241.61876307 223.25538933 230.1624273 203.1875 219.625 C202.30513672 219.15852051 201.42277344 218.69204102 200.51367188 218.21142578 C169.01511756 201.65672202 135.10758088 189.60619702 100.625 180.9375 C99.96795074 180.77069733 99.31090149 180.60389465 98.63394165 180.43203735 C94.49996202 179.39294169 90.38150615 178.38777832 86.1875 177.625 C85.4048024 177.36894485 84.6221048 177.11288971 83.81568909 176.84907532 C80.56185468 176.06585486 78.4845815 175.94177516 75.1875 176.625 C69.78083312 180.38499745 65.46682626 185.09595156 60.97265625 189.87890625 C59.63018534 191.2590541 58.2845407 192.63612125 56.93589783 194.01023865 C53.39458124 197.63123189 49.88817826 201.28404615 46.39080811 204.94744873 C40.80541947 210.79176372 35.17984629 216.5966306 29.53298759 222.3815136 C27.57931855 224.39587208 25.64784062 226.42972789 23.7177887 228.46669006 C14.18566447 238.38815756 4.96392878 245.63309816 -9.375 245.9375 C-24.59873954 245.79522206 -33.58651582 238.10056879 -43.77265167 227.77257538 C-44.98369554 226.53779964 -46.19327154 225.30158283 -47.40150833 224.06406021 C-49.32136068 222.09976667 -51.24938584 220.14384631 -53.18002319 218.19015503 C-58.66323555 212.64009206 -64.13764727 207.0815659 -69.59179688 201.50292969 C-72.94034227 198.07913969 -76.30331059 194.67010238 -79.67600632 191.27010727 C-80.95500611 189.97500764 -82.22843063 188.67437718 -83.49608231 187.36816788 C-85.26460265 185.5467466 -87.05085779 183.74465607 -88.84228516 181.94580078 C-89.61861549 181.13239983 -89.61861549 181.13239983 -90.41062927 180.30256653 C-92.95591748 177.78493235 -94.39372439 176.6727986 -97.99971008 176.26121521 C-103.54830386 176.978828 -108.93361175 178.27828951 -114.375 179.5625 Z M-498.8125 462.625 C-504.11761753 470.96865234 -505.79113533 479.83864666 -504.8125 489.625 C-502.48216619 499.58188084 -497.4235474 507.49054925 -488.98828125 513.3046875 C-479.5932446 519.00580489 -469.73414155 520.52278223 -458.91015625 517.9296875 C-448.01119012 513.93284014 -440.37750718 506.47796969 -435.4375 496.0625 C-432.23713892 487.27163477 -432.5794051 477.79736158 -435.9375 469.125 C-440.36906293 459.89051412 -446.7541565 453.66305724 -456.2265625 449.5859375 C-472.42445136 444.08379748 -488.00162688 449.68351684 -498.8125 462.625 Z M422.1875 459.625 C414.91579572 469.40106716 413.16160651 478.55198514 414.1875 490.625 C416.82706868 501.03360845 423.15136207 509.39311994 432.34375 514.921875 C440.93922164 519.34790144 450.67264333 520.14716277 460.11328125 517.94140625 C470.12312647 514.18966022 477.69072804 507.67284162 482.4453125 498.08984375 C486.54113866 488.13669977 486.37730632 478.58351491 482.64453125 468.51953125 C477.84860895 458.99197516 469.65779358 452.60050888 459.875 448.8125 C445.96640137 444.66849972 432.09346184 449.33126029 422.1875 459.625 Z M-389.8125 463.625 C-385.3575 473.03 -385.3575 473.03 -380.8125 482.625 C-375.6111801 494.84810176 -374.27745367 503.70736101 -378.5546875 516.5390625 C-382.96691085 527.36408252 -392.12318017 533.07656523 -402.2109375 538.12890625 C-402.99539749 538.52938171 -403.77985748 538.92985718 -404.58808899 539.34246826 C-407.11759292 540.63144185 -409.65241851 541.90953661 -412.1875 543.1875 C-413.94278362 544.07969411 -415.69774556 544.97252135 -417.45239258 545.8659668 C-425.19747681 549.80377459 -432.95894859 553.70843054 -440.73828125 557.578125 C-441.89730957 558.1548999 -443.05633789 558.7316748 -444.25048828 559.32592773 C-446.32842685 560.35646661 -448.40862505 561.38246972 -450.49169922 562.40258789 C-452.3437474 563.31679923 -454.18768656 564.24767468 -456.02197266 565.19702148 C-458.0227107 566.22084623 -460.05274129 567.18818489 -462.09912109 568.11743164 C-468.07606797 570.98653457 -468.07606797 570.98653457 -472.03979492 576.05834961 C-472.72545864 579.22365862 -472.94389636 582.19998422 -473.0625 585.4375 C-473.14709473 586.68797119 -473.23168945 587.93844238 -473.31884766 589.22680664 C-473.61002582 594.02378021 -473.71639338 598.82070261 -473.8125 603.625 C-473.83509888 604.67482056 -473.85769775 605.72464111 -473.88098145 606.80627441 C-474.46371288 635.44644537 -475.01570337 664.22222145 -470.8125 692.625 C-470.61147364 694.03527019 -470.41080621 695.44559159 -470.21044922 696.85595703 C-467.79606101 713.63507999 -464.69135557 730.18079345 -460.5625 746.625 C-460.39005768 747.31230194 -460.21761536 747.99960388 -460.03994751 748.70773315 C-458.00713104 756.87460978 -458.00713104 756.87460978 -454.8125 764.625 C-407.6225 764.625 -360.4325 764.625 -311.8125 764.625 C-311.8125 665.295 -311.8125 565.965 -311.8125 463.625 C-337.5525 463.625 -363.2925 463.625 -389.8125 463.625 Z M-105.8125 463.625 C-105.8125 491.345 -105.8125 519.065 -105.8125 547.625 C-77.61231722 547.71249191 -77.61231722 547.71249191 -49.41210938 547.77148438 C-37.90189577 547.78924241 -26.39174834 547.8100481 -14.8815918 547.85131836 C-6.49649738 547.88136903 1.88854303 547.90060992 10.27368981 547.90726548 C14.70704312 547.9111514 19.140242 547.92018146 23.57354546 547.94219017 C27.76043253 547.9628039 31.94710401 547.9687845 36.13403702 547.96432304 C37.6572252 547.96513728 39.18042185 547.97095291 40.7035656 547.98261642 C61.23457962 548.13190086 83.90839937 545.05316332 99.50390625 530.45703125 C107.3469901 522.06507597 110.61973319 514.22167873 110.453125 502.78125 C109.53361819 491.8553455 102.89699575 484.6394267 94.94140625 477.65234375 C76.84833055 463.76979831 53.31357291 463.45336328 31.55322266 463.51147461 C30.04378766 463.51175752 28.53435252 463.51159673 27.0249176 463.5110321 C22.97421054 463.51074817 18.92353381 463.51657884 14.87283373 463.52360606 C10.62212311 463.52990758 6.37141159 463.53044873 2.12069702 463.53163147 C-5.90764314 463.53472491 -13.9359695 463.5429112 -21.96430361 463.55298096 C-32.82782898 463.56630762 -43.69135819 463.57165808 -54.55488968 463.57748318 C-71.64077011 463.58685267 -88.72662141 463.60678478 -105.8125 463.625 Z M-105.8125 681.625 C-105.8125 709.015 -105.8125 736.405 -105.8125 764.625 C-94.60345703 764.69847656 -94.60345703 764.69847656 -83.16796875 764.7734375 C-78.4420435 764.80881085 -73.71613699 764.84476343 -68.99023438 764.8828125 C-61.48432048 764.94318844 -53.9784329 765.00138544 -46.47241211 765.046875 C-40.42287359 765.08367156 -34.37347753 765.13001616 -28.32406044 765.18306351 C-26.01275436 765.20163742 -23.7014177 765.21673421 -21.39006615 765.22834396 C-18.15987848 765.24515507 -14.93001926 765.27417782 -11.69995117 765.30615234 C-10.73826019 765.30831253 -9.77656921 765.31047272 -8.78573608 765.31269836 C-7.46694206 765.32944359 -7.46694206 765.32944359 -6.12150574 765.3465271 C-5.35733935 765.35205786 -4.59317297 765.35758862 -3.80585003 765.36328697 C-1.8125 765.625 -1.8125 765.625 1.1875 767.625 C2.21986161 770.72208482 2.31324597 772.84448583 2.31448364 776.09069824 C2.31730347 777.22639755 2.32012329 778.36209686 2.32302856 779.5322113 C2.31999222 781.40248741 2.31999222 781.40248741 2.31689453 783.31054688 C2.31952301 785.27907372 2.31952301 785.27907372 2.32220459 787.28736877 C2.32676786 790.88852675 2.32499389 794.48965611 2.3218255 798.09081459 C2.31929621 801.85705264 2.32164104 805.62328822 2.32321167 809.38952637 C2.32503169 815.71460409 2.32263142 822.03967014 2.31787109 828.36474609 C2.31242879 835.68051002 2.31419157 842.99624608 2.3196975 850.31200933 C2.32423337 856.58977418 2.32487685 862.86753062 2.32225883 869.14529657 C2.32069868 872.89622104 2.32049516 876.6471324 2.32379532 880.39805603 C2.3272164 884.57853856 2.32247652 888.75897293 2.31689453 892.93945312 C2.31891876 894.18630386 2.32094299 895.4331546 2.32302856 896.7177887 C2.31879883 898.42133766 2.31879883 898.42133766 2.31448364 900.15930176 C2.31410662 901.14817635 2.31372959 902.13705093 2.31334114 903.15589142 C2.1875 905.625 2.1875 905.625 1.1875 908.625 C-1.59851984 910.01800992 -3.87425162 909.75647869 -6.99319649 909.7636652 C-7.63708618 909.76650742 -8.28097587 909.76934964 -8.94437736 909.77227798 C-11.12269042 909.78066341 -13.30095057 909.78189619 -15.47927856 909.78321838 C-17.04843011 909.78778112 -18.61758043 909.79278071 -20.18672931 909.79818195 C-24.51480599 909.81180533 -28.84287479 909.81919352 -33.17096734 909.82560861 C-37.83219853 909.83359417 -42.49341322 909.84729826 -47.15463257 909.86032104 C-55.23588674 909.88211004 -63.31714256 909.90024564 -71.3984108 909.91592598 C-83.08268419 909.93860259 -94.76693932 909.96674844 -106.45119725 909.99624526 C-125.40642163 910.04394831 -144.36165346 910.08720512 -163.31689453 910.12768555 C-181.73421814 910.16702668 -200.15153512 910.20844958 -218.56884766 910.25268555 C-220.27064697 910.25677196 -220.27064697 910.25677196 -222.00682606 910.26094092 C-227.69823195 910.27462017 -233.38963774 910.28834049 -239.08104348 910.30208123 C-286.3248485 910.41608862 -333.56866787 910.52288852 -380.8125 910.625 C-378.44691285 915.4936127 -375.19092862 919.41326872 -371.8125 923.625 C-371.12800781 924.48609375 -370.44351562 925.3471875 -369.73828125 926.234375 C-364.81514202 932.35073469 -359.64895317 938.16374711 -354.29296875 943.8984375 C-351.8125 946.625 -351.8125 946.625 -350.03466797 949.31567383 C-348.02392356 951.91303799 -348.02392356 951.91303799 -345.04663086 951.8605957 C-343.42833374 951.58348755 -343.42833374 951.58348755 -341.77734375 951.30078125 C-339.88713501 950.99950317 -339.88713501 950.99950317 -337.95874023 950.69213867 C-336.55580058 950.44073888 -335.15288805 950.18918762 -333.75 949.9375 C-332.28179154 949.69551486 -330.81310414 949.45642091 -329.34399414 949.2199707 C-326.04721709 948.68535296 -322.75349929 948.13517852 -319.4609375 947.57519531 C-309.71296482 945.92463698 -299.94489102 944.397128 -290.1789856 942.85702515 C-286.79038821 942.31891367 -283.40379364 941.76940407 -280.01733398 941.21801758 C-277.89570985 940.87817265 -275.77404808 940.53856263 -273.65234375 940.19921875 C-272.69102539 940.04004974 -271.72970703 939.88088074 -270.73925781 939.71688843 C-257.99601948 937.70200532 -246.62012037 938.12541273 -235.8125 945.9609375 C-225.56377668 954.48819557 -223.0684349 964.70723114 -221.0625 977.4375 C-220.81712736 978.93188082 -220.57075887 980.4260984 -220.32348633 981.92016602 C-219.46420444 987.15161981 -218.63711274 992.38798578 -217.8125 997.625 C-217.64562683 998.6823938 -217.47875366 999.7397876 -217.30682373 1000.82922363 C-215.6725761 1011.18805366 -214.04181893 1021.54741042 -212.44042969 1031.91137695 C-212.27325943 1032.98986908 -212.10608917 1034.06836121 -211.93385315 1035.17953491 C-211.6184145 1037.21617553 -211.30448251 1039.25305026 -210.99229431 1041.29019165 C-210.85134842 1042.19917206 -210.71040253 1043.10815247 -210.56518555 1044.04467773 C-210.44338425 1044.83623764 -210.32158295 1045.62779755 -210.1960907 1046.44334412 C-209.6961666 1050.73883094 -209.6961666 1050.73883094 -207.10791016 1053.83837891 C-205.99101807 1054.33990479 -205.99101807 1054.33990479 -204.8515625 1054.8515625 C-204.00174805 1055.23844238 -203.15193359 1055.62532227 -202.27636719 1056.02392578 C-200.87112793 1056.63083252 -200.87112793 1056.63083252 -199.4375 1057.25 C-198.45942383 1057.6816748 -197.48134766 1058.11334961 -196.47363281 1058.55810547 C-155.24772348 1076.44945028 -111.57107513 1088.32049859 -67 1093.875 C-66.33403809 1093.95808411 -65.66807617 1094.04116821 -64.98193359 1094.12677002 C-51.97399742 1095.73019561 -39.05934518 1096.77580965 -25.9453125 1096.828125 C-24.7601001 1096.83518463 -23.5748877 1096.84224426 -22.35375977 1096.84951782 C14.02361781 1097.07730189 14.02361781 1097.07730189 50.1875 1093.625 C51.59777019 1093.42397364 53.00809159 1093.22330621 54.41845703 1093.02294922 C99.00232769 1086.60601883 142.10154749 1074.17772842 183.1875 1055.625 C184.2609668 1055.21072754 185.33443359 1054.79645508 186.44042969 1054.36962891 C189.4218336 1052.85746631 189.4218336 1052.85746631 190.29248047 1049.77319336 C190.46150879 1048.59893799 190.63053711 1047.42468262 190.8046875 1046.21484375 C190.90759094 1045.55556381 191.01049438 1044.89628387 191.11651611 1044.21702576 C191.45653201 1042.00180403 191.7586506 1039.78294695 192.0625 1037.5625 C192.29904004 1035.99061201 192.53853788 1034.4191667 192.78076172 1032.84814453 C193.31189414 1029.37864427 193.82813557 1025.90735796 194.33398438 1022.43408203 C195.75270912 1012.72533691 197.26654458 1003.03135154 198.79205322 993.33889771 C199.30504674 990.04781599 199.80149781 986.75453956 200.29638672 983.46069336 C200.61626949 981.39818276 200.93671928 979.33576 201.2578125 977.2734375 C201.39310364 976.34550888 201.52839478 975.41758026 201.66778564 974.46153259 C203.52045474 962.8067803 207.76303698 952.95580801 216.90234375 945.234375 C227.49112782 937.77697494 239.51258689 937.77830627 251.76489258 939.85009766 C252.569328 939.98010666 253.37376343 940.11011566 254.20257568 940.24406433 C255.93156805 940.5242376 257.66005776 940.80752773 259.38807106 941.09367752 C262.12332983 941.54589028 264.86002842 941.98819434 267.59733582 942.42782593 C275.3734347 943.6783399 283.14682621 944.94519021 290.91870117 946.22167969 C295.68653898 947.00407226 300.45625189 947.77402532 305.22733116 948.5363884 C307.04182201 948.82898167 308.85553158 949.1264633 310.66840553 949.42891312 C313.1962366 949.85048138 315.72613695 950.25629618 318.25708008 950.65869141 C319.00467087 950.78744156 319.75226166 950.91619171 320.52250671 951.04884338 C324.36892604 951.6425346 326.95424721 951.97053213 330.1875 949.625 C332.23580835 947.67555463 332.23580835 947.67555463 334.25 945.3125 C335.03761719 944.41402344 335.82523438 943.51554687 336.63671875 942.58984375 C337.47847656 941.61144531 338.32023438 940.63304687 339.1875 939.625 C339.8364624 938.87500732 339.8364624 938.87500732 340.49853516 938.10986328 C345.92554968 931.82835727 351.20839064 925.43487719 356.375 918.9375 C357.09792236 918.03692871 357.09792236 918.03692871 357.83544922 917.11816406 C360.37282734 914.22073715 360.37282734 914.22073715 361.1875 910.625 C360.1963491 910.62353344 359.20519819 910.62206688 358.18401241 910.62055588 C334.01930888 910.58389108 309.8547432 910.52435022 285.69015408 910.44109726 C274.0041272 910.40136056 262.31816714 910.36894081 250.63208008 910.35400391 C240.44139449 910.34095954 230.25085626 910.31392393 220.06025368 910.27038693 C214.66901106 910.24783474 209.27794977 910.23208557 203.88665581 910.23311615 C198.80173495 910.23386646 193.71721398 910.21576772 188.6323967 910.18383217 C186.7762122 910.1753837 184.91998259 910.17354846 183.06378746 910.17919731 C164.79645364 910.2273411 147.90686432 907.41083812 133.890625 894.44921875 C110.13101879 869.00028274 104.35837399 831.59083078 97.4684906 798.74278259 C87.09728065 744.95499373 87.09728065 744.95499373 58.1875 699.625 C57.26710938 698.66787109 57.26710938 698.66787109 56.328125 697.69140625 C38.9406784 681.00986026 15.58793109 681.02832213 -6.87786865 681.21942425 C-10.36646324 681.24474777 -13.85507767 681.24680389 -17.34375 681.25152588 C-23.92363402 681.26386614 -30.50324628 681.29656376 -37.08301163 681.33692384 C-45.32351774 681.38635343 -53.56406972 681.40798872 -61.8046875 681.4296875 C-76.47416903 681.46843499 -91.14305914 681.54859666 -105.8125 681.625 Z M-321.125 1000 C-327.21250176 1007.6894759 -330.25509273 1016.23345524 -329.6875 1026.0625 C-328.32738475 1036.91319725 -323.80244638 1044.21422601 -315.8125 1051.625 C-306.83592272 1058.58144011 -296.93018844 1059.96646423 -285.8125 1058.625 C-276.0487655 1056.06023096 -268.98550434 1051.32695067 -263.5625 1042.875 C-258.28634536 1033.47949468 -256.48102096 1024.71526732 -258.9375 1014.1875 C-261.85788835 1004.36684522 -268.11917156 996.30744993 -277.1484375 991.33984375 C-292.62502341 984.16714031 -309.50888597 987.24847633 -321.125 1000 Z M246.375 1000.375 C240.58142304 1007.37837262 237.80673271 1016.34260318 237.9765625 1025.39453125 C238.92611475 1035.43516704 243.66510052 1045.05961951 251.4375 1051.5 C261.24627873 1058.38078508 270.44331301 1059.76114844 282.1875 1058.625 C291.44828641 1056.74039252 298.42464975 1050.51515043 304.078125 1043.16796875 C309.88591096 1034.21664816 311.28301522 1025.05668892 309.1875 1014.625 C305.9059691 1004.11730003 299.01914354 995.76735691 289.296875 990.625 C273.90547929 983.66541237 257.69849631 988.44919005 246.375 1000.375 Z " fill="#000000" transform="translate(649.8125,7.375)"/>
</svg>
